<svg width="60" height="58" viewBox="0 0 60 58" fill="none" xmlns="http://www.w3.org/2000/svg">
<path d="M0.0415982 41.336C2.36022 39.5931 4.80768 38.3833 7.49843 37.6775C7.85624 37.5767 8.24266 37.4903 8.55754 37.303C10.0317 36.4532 11.5346 35.6178 12.9515 34.6672C14.0106 33.9614 15.1127 33.5726 16.3579 33.3853C19.0343 32.9964 21.5962 32.2042 23.8147 30.5334C24.1152 30.303 24.4587 30.1157 24.8166 30.0005C27.264 29.2227 29.7114 28.4738 32.1588 27.7248C32.7027 27.5663 33.3039 27.552 33.8191 27.3215C34.9927 26.803 36.2093 26.6877 37.4545 26.8462C38.6281 26.9902 39.7445 26.9758 40.4744 25.8956C41.0755 26.4285 41.4477 27.0046 41.9057 27.0766C42.378 27.1631 42.9362 26.803 43.4371 26.5581C43.8665 26.3565 44.21 25.9388 44.6394 25.8235C45.1689 25.6795 45.8273 25.5787 46.2853 25.7947C46.7147 25.9964 46.9437 26.6301 47.2299 27.0478C45.8273 28.5746 43.981 29.0067 42.3207 29.7413C41.5908 30.0581 40.6462 30.0581 39.8304 29.9573C38.7999 29.8277 37.9984 30.0869 37.1825 30.6775C36.4955 31.1672 35.7227 31.7001 34.9355 31.8297C33.49 32.0746 32.2305 32.6795 30.928 33.2557C29.9834 33.6734 28.9815 34.0047 27.9796 34.2207C26.1333 34.624 24.5589 35.8051 22.641 36.0211C22.1115 36.0787 21.5676 36.4244 21.124 36.7701C18.9771 38.3833 16.6155 39.5211 13.9963 40.1549C13.0803 40.3709 12.2359 40.8607 11.3628 41.2351C9.01555 42.2434 6.65402 43.266 4.30677 44.2886C3.56252 44.6199 2.86115 44.6631 2.17415 44.1014C1.8879 43.871 1.51583 43.7413 1.15802 43.6117C0.15614 43.2372 -0.115839 42.517 0.0415982 41.336Z" fill="#F88A21"/>
<path d="M30.8459 53.3753C30.6312 52.8568 30.4165 52.3239 30.2018 51.8198C30.9747 50.6531 31.676 49.5584 32.3916 48.4638C34.2665 47.7292 34.7675 45.684 36.1415 44.4597C36.9144 43.7683 37.5298 42.8897 38.2454 42.1263C39.0898 41.2333 39.9486 40.3979 41.0363 39.721C42.1098 39.044 43.2118 38.1654 43.7557 36.8835C43.8273 36.7107 43.9275 36.5378 44.0277 36.3794C44.9437 35.0543 45.831 34.939 47.1335 35.9761C47.2766 36.0913 47.4627 36.1921 47.5629 36.3506C48.1354 37.0995 48.7079 37.8629 49.3662 38.7559C48.1783 40.6716 46.976 42.544 45.1297 43.9843C43.3407 45.3959 41.6947 46.9947 39.9629 48.507C39.3188 49.0687 38.6605 49.6449 37.9306 50.077C37.2293 50.4947 36.5566 50.9412 35.569 50.826C34.8248 50.7395 33.9946 51.2868 33.1645 51.5605C33.4507 51.9926 33.6511 52.2807 33.9087 52.684C33.0071 53.649 32.1626 54.6572 31.2037 55.5502C30.6598 56.0688 29.9871 56.4721 29.3287 56.861C28.6417 57.2642 27.9118 57.2066 27.8546 56.7457C27.7973 56.328 27.8689 55.7519 28.1122 55.4638C28.6704 54.8301 29.3717 54.326 30.03 53.793C30.2447 53.6202 30.531 53.505 30.7743 53.3609C30.7457 53.5194 30.7171 53.6634 30.6884 53.8218C30.7886 53.6778 30.8173 53.5338 30.8459 53.3753Z" fill="#F88A21"/>
<path d="M60.0004 11.4186C58.9555 10.7849 57.8964 10.1512 56.8516 9.51741C56.6083 9.37338 56.3364 9.15732 56.0787 9.18612C54.5902 9.28695 53.3164 8.32192 51.9424 8.27871C49.5236 8.20669 47.3052 7.3281 44.958 7.01122C43.1546 6.76636 41.3798 6.65113 39.5765 6.62232C37.9878 6.59351 36.4134 6.72316 34.8533 5.91657C33.8371 5.38365 32.4631 5.57088 31.2466 5.38364C30.3162 5.2396 29.3859 5.03795 28.5272 4.87952C27.8259 3.32396 27.1818 1.88362 26.5664 0.486494C27.3679 -0.248077 28.1122 0.0399865 28.8564 0.14081C31.3754 0.500894 33.9087 0.846578 36.4277 1.20666C37.4582 1.3507 38.4887 1.55235 39.5049 1.7396C40.9075 1.99886 42.3101 2.22931 43.6984 2.53178C45.1869 2.84865 46.6611 3.12232 48.0208 3.9145C48.9082 4.43302 49.953 4.70668 50.9549 5.02355C53.617 5.85895 56.0072 7.25607 58.3544 8.71081C58.9126 9.05649 59.4565 9.50301 59.8287 10.0215C60.0577 10.3384 59.9432 10.9001 59.9861 11.361L60.0004 11.4186Z" fill="#F88A21"/>
<path d="M30.8423 53.3748C30.8137 53.5188 30.7708 53.6628 30.7422 53.8213C30.7708 53.6628 30.7994 53.5188 30.828 53.3604L30.8423 53.3748Z" fill="#F88A21"/>
</svg>
