<svg width="100" height="109" viewBox="0 0 100 109" fill="none" xmlns="http://www.w3.org/2000/svg">
<path d="M99.7699 96.0643C98.2859 98.4028 97.1974 100.97 96.5484 103.662C93.7872 85.6636 85.1168 90.6983 73.8324 98.416C72.3092 99.3088 68.0384 101.725 68.3559 98.3654C73.3722 87.5642 85.2457 81.4158 90.6163 70.5457C91.5799 69.0179 92.045 67.2285 91.9474 65.4249C91.8497 63.6213 91.1942 61.8925 90.0714 60.4777C88.9486 59.0628 87.414 58.0317 85.6797 57.5268C83.9454 57.022 82.0972 57.0685 80.3904 57.6598C70.749 60.8812 63.8229 68.6818 55.1571 73.4542C41.3232 83.1876 24.4703 74.3746 29.3853 56.9695C38.746 58.0095 57.3155 53.4857 52.8929 40.7516C43.9832 28.6941 28.7042 43.5543 25.8877 53.702C-0.0911506 48.7869 -1.94579 21.2801 4.34989 0.184081L3.77923 0C-3.79123 21.7634 -1.55463 50.393 25.0685 56.2791C20.0845 71.1347 32.593 86.2895 48.2263 82.1982C59.7316 79.4001 68.3191 70.9645 78.2367 65.2855C80.5653 64.1119 84.4449 61.9259 85.7657 65.1014C85.3745 70.3386 80.2432 74.7658 77.0217 78.9077C72.6865 83.97 67.7209 88.6089 64.6697 94.7205C61.9636 99.226 65.2863 105.844 70.9653 104.187C81.9137 100.459 90.3402 83.5512 95.536 104.031C93.8562 101.766 90.9891 99.6356 88.0161 100.225V100.455C91.4171 101.909 93.0324 104.988 95.4393 107.524C95.641 107.758 95.9118 107.923 96.2128 107.994C96.5139 108.065 96.8297 108.039 97.115 107.919C97.4002 107.799 97.6402 107.592 97.8005 107.328C97.9609 107.063 98.0333 106.755 98.0073 106.447C97.8831 102.94 98.7482 99.4837 100 96.207L99.7699 96.0643ZM33.2741 48.2024C49.8417 26.4529 62.1017 54.2542 30.2505 54.1852C31.0274 52.0824 32.0418 50.0751 33.2741 48.2024ZM96.1343 106.516C96.1343 106.553 96.1389 106.539 96.1343 106.516V106.516Z" fill="#F2F2F0"/>
</svg>
