<svg width="60" height="101" viewBox="0 0 60 101" fill="none" xmlns="http://www.w3.org/2000/svg">
<path d="M40.2406 0.137375C30.3579 0.332108 27.8751 0.52684 27.1449 1.11104C25.9765 2.0847 10.5926 22.5803 9.61892 24.5276C8.64526 26.3776 8.98604 28.0815 10.4952 29.1039C11.0794 29.4933 13.2215 30.1262 15.2175 30.5643C20.9621 31.7327 21.0595 31.7327 21.0595 32.609C21.0595 33.9235 18.8687 36.455 10.3005 45.1693C5.82163 49.6968 1.92698 53.9809 1.68356 54.6625C0.661217 57.6809 2.36513 58.8006 9.47287 59.7256C13.1728 60.2124 14.5359 60.5532 15.0227 61.2347C15.899 62.4518 15.899 65.7623 14.9254 69.3648C13.9517 73.1134 8.40184 84.7487 4.36114 91.5157C-0.0690305 98.9155 -0.409813 99.6944 0.271752 100.376C1.39146 101.496 2.65723 100.765 8.01237 95.8971C17.8464 86.8908 18.7714 86.1118 28.1185 78.3225C42.0419 66.7359 43.9405 64.8373 43.9405 62.4031C43.9405 60.3584 42.334 59.5795 36.5894 58.8979C33.8631 58.5572 31.5263 58.0703 31.429 57.7782C31.3316 57.5348 35.2263 53.4454 40.1433 48.7718C49.101 40.2036 57.4745 31.2946 59.1297 28.617C60.2981 26.6697 60.2981 24.1869 59.081 23.5053C58.5455 23.2619 55.3811 23.0185 51.9733 23.0185C43.405 23.0185 43.3563 23.3592 52.4601 13.0384C58.0587 6.66091 59.7626 4.03202 59.3244 2.32811C58.7402 -0.0573654 57.3284 -0.203407 40.2406 0.137375ZM55.6245 3.69124C55.6245 4.0807 54.164 6.07671 52.3627 8.12141C50.5128 10.1661 47.5918 13.5739 45.7418 15.6186C42.334 19.5133 41.263 21.8014 41.9932 23.7C42.7235 25.5987 44.8655 26.1342 51.0483 25.7934C54.3587 25.6473 56.6955 25.696 56.8903 25.9881C57.0363 26.2802 56.8416 26.9618 56.4034 27.5947C55.089 29.5907 44.9142 39.9602 37.3683 47.0192C29.5303 54.3217 27.583 56.8046 28.0698 58.8493C28.508 60.5532 30.6014 61.3321 36.1026 61.8189C39.2183 62.0623 40.7761 62.4031 40.9222 62.8413C41.2143 63.7176 38.1959 66.4438 27.9238 74.8173C23.2502 78.5659 16.5806 84.1645 13.1728 87.1829C9.76497 90.2012 6.94135 92.538 6.94135 92.392C6.94135 92.1972 8.98604 88.1565 11.5176 83.3369C14.0491 78.5659 16.5806 73.4055 17.1648 71.8477C19.2582 66.2004 18.8687 60.4558 16.1911 58.4598C15.4122 57.9243 13.4649 57.3888 10.836 57.0967C5.43217 56.4638 4.50719 56.2204 4.50719 55.5388C4.50719 55.2467 7.76896 51.6928 11.761 47.6521C20.5239 38.7431 23.3476 35.2866 23.7857 32.9498C24.2726 30.4183 23.1042 29.542 17.8951 28.2762C15.4609 27.692 13.2215 27.0105 12.8807 26.6697C12.3939 26.2315 13.0754 25.0145 16.1425 20.6817C18.2845 17.712 21.7897 12.6489 23.9318 9.43585C26.0738 6.27145 28.0698 3.54519 28.3619 3.44782C28.654 3.39914 34.8855 3.25309 42.2366 3.15572C53.4338 3.05836 55.6245 3.10704 55.6245 3.69124Z" fill="#F2F2F0"/>
</svg>
