<svg width="60" height="35" viewBox="0 0 60 35" fill="none" xmlns="http://www.w3.org/2000/svg">
<path d="M0 17.84C0.510328 17.5221 0.887022 17.2286 1.30014 17.0574C3.47511 16.1525 5.75941 15.6023 8.01944 15.0031C9.81773 14.5263 11.5918 13.9393 13.3901 13.4502C15.5043 12.8877 17.6185 12.3253 19.7448 11.8728C23.305 11.1147 26.8651 10.3688 30.5225 10.1609C30.7655 10.1487 31.0207 10.1487 31.2515 10.0876C34.8724 9.10934 38.6148 8.97483 42.3086 8.54686C44.9453 8.24117 47.5942 7.91102 50.2795 8.02107C52.6124 8.10667 54.9574 7.8132 57.2904 7.66647C58.2746 7.60533 59.1981 7.71538 60 8.26563C59.9757 8.52241 60 8.7792 59.9271 8.81588C58.87 9.39059 57.8979 10.1365 56.8651 10.7112C55.8566 11.2614 54.5565 11.3593 53.3779 11.4204C52.661 11.4571 51.9684 11.3348 51.2637 11.6649C50.9599 11.8117 50.5103 11.6283 50.1215 11.5916C48.9307 11.4448 47.7521 11.3103 46.5735 11.775C45.1397 12.3375 43.6573 12.7288 42.1871 12.0318C41.7497 12.6554 41.5431 13.279 40.7047 13.279C40.085 13.279 39.4654 13.5603 38.8335 13.6948C38.6027 13.7437 38.2746 13.8537 38.1531 13.7437C37.4605 13.1078 36.7922 13.548 36.0996 13.6825C35.2248 13.8537 34.3499 14.0249 33.4751 14.1227C32.5759 14.2206 31.7619 14.4896 30.9478 14.9175C29.7205 15.5534 28.4204 15.9324 26.9745 15.7001C26.4763 15.6267 25.8931 15.8713 25.3706 16.0547C22.6975 16.9718 20.0486 17.9378 17.1811 18.0356C16.8652 18.0478 16.5006 18.0601 16.2333 18.1946C14.7023 19.0261 12.9527 19.0505 11.3488 19.5519C9.65982 20.0777 8.05589 20.8602 6.3791 21.4472C5.55285 21.7406 4.66588 21.9118 3.79103 22.0219C3.09844 22.1075 2.55167 21.7651 2.28436 21.0437C2.0535 20.4323 1.88335 19.7842 1.51883 19.2584C1.15431 18.7448 0.595382 18.3902 0 17.84ZM56.209 9.29275C56.0875 9.52508 55.9902 9.72074 55.893 9.91638C56.0145 9.97752 56.1482 10.0876 56.2697 10.0753C56.3912 10.0509 56.5249 9.9286 56.5978 9.81855C56.61 9.76964 56.452 9.6229 56.209 9.29275Z" fill="#F88A21"/>
<path d="M8.85547 29.4194C9.76677 28.5879 10.593 28.6002 11.3949 28.698C15.2467 29.1749 19.0742 29.7985 22.9259 30.1531C25.3682 30.3732 27.6768 31.0824 30.0705 31.4981C31.9295 31.8161 32.3427 32.0362 33.8737 33.2223C33.5699 33.3934 33.3269 33.638 33.0596 33.6747C32.4156 33.7603 31.7716 33.7847 31.1276 33.748C30.2163 33.6991 29.3536 33.7603 28.5638 34.2616C27.4581 34.9708 26.3888 34.5184 25.356 34.0415C25.1859 33.9681 25.1252 33.6624 24.9308 33.3201C24.627 33.6991 24.3961 33.9926 24.1896 34.2494C23.2904 34.3472 22.4278 34.4939 21.5529 34.5306C20.3378 34.5795 19.1349 34.5306 17.9198 34.5306C15.9636 34.5429 14.1774 33.8092 12.3427 33.2467C11.2613 32.9166 10.5079 32.2807 9.9247 31.3636C9.53588 30.7645 9.23214 30.1164 8.85547 29.4194Z" fill="#F88A21"/>
<path d="M24.0803 0.464232C23.9953 1.16122 23.6429 1.69924 23.0597 2.04162C22.5008 2.37177 21.9297 2.71415 21.3221 2.88534C19.7911 3.30108 18.6126 4.15703 17.4218 5.22084C16.0002 6.49254 14.2383 7.34848 12.5494 8.38785C11.3222 7.16507 10.3865 5.88115 9.29297 4.53609C9.79115 4.10812 10.1071 3.70459 10.508 3.5334C11.1034 3.28885 11.7474 3.14211 12.3914 3.10543C13.9345 3.01984 15.1374 2.50628 16.0487 1.12454C16.5712 0.329729 17.4218 -0.220519 18.5518 0.500921C18.9285 0.733249 19.6818 0.59874 20.1557 0.390868C21.5287 -0.196066 22.8288 -0.0982467 24.1289 0.525371L24.0803 0.464232ZM21.7353 1.6381C21.8325 1.72369 21.954 1.89488 22.0391 1.89488C22.1606 1.88265 22.2699 1.72369 22.3793 1.6381C22.282 1.54027 22.1605 1.36909 22.0755 1.38132C21.954 1.39354 21.8446 1.54027 21.7353 1.6381Z" fill="#F88A21"/>
<path d="M24.1439 0.525165C24.1926 0.378431 24.229 0.219467 24.314 0.109417C24.3505 0.060506 24.5206 0.0971923 24.63 0.0971923C24.5935 0.158331 24.5571 0.243926 24.5085 0.280609C24.3748 0.353976 24.229 0.402887 24.0954 0.464026C24.0832 0.464026 24.1439 0.525165 24.1439 0.525165Z" fill="#F88A21"/>
<path d="M21.7383 1.63775C21.8598 1.53993 21.957 1.38097 22.0906 1.36875C22.1757 1.35652 22.285 1.53993 22.3944 1.62553C22.285 1.72335 22.1757 1.87008 22.0542 1.88231C21.9448 1.90676 21.8355 1.73557 21.7383 1.63775Z" fill="white"/>
</svg>
