<svg width="128" height="92" viewBox="0 0 128 92" fill="none" xmlns="http://www.w3.org/2000/svg">
<mask id="path-1-inside-1_387_2821" fill="white">
<path d="M9.30539 68.2137C10.1675 69.1186 11.388 70.0477 12.3458 69.5976C12.4615 69.5432 12.5724 69.4783 12.6789 69.3769C16.4536 66.0618 20.3711 63.0779 24.4109 60.4089C26.0555 59.3149 27.7298 58.2841 29.1791 56.8838C24.4617 56.853 19.7169 58.7873 15.9631 62.3109C15.6886 61.8362 16.0208 61.2306 16.3331 60.8013C20.0725 55.7433 23.7675 50.5906 27.4601 45.3234C26.3384 45.6708 25.3068 46.3739 24.4984 47.306C24.6071 47.5375 24.6416 47.8295 24.5938 48.0832C24.3791 47.9272 24.1595 47.7607 23.9449 47.6047C22.308 49.016 20.7615 50.5648 19.3212 52.2305C19.7279 52.1935 20.1451 52.1516 20.5567 52.1251C18.0456 53.1253 16.2557 55.6875 14.7122 58.1724C15.9367 53.4228 17.4635 48.4413 16.7188 43.6026C14.3439 46.2598 13.1876 49.9241 12.2325 53.4425C11.5294 56.0205 10.8937 58.6053 10.3206 61.1865C11.4284 59.4971 12.0885 57.4017 12.1507 55.2919C12.7254 56.4602 12.4507 58.1177 11.5495 59.0164C11.8644 59.1124 12.0789 59.4868 12.049 59.8605C11.711 59.8524 11.4669 60.2625 11.3583 60.6603C11.2553 61.0426 11.1924 61.4832 10.936 61.7578C10.6796 62.0324 10.1369 61.8893 10.183 61.4952C10.086 62.0545 10.0045 62.6193 9.91808 63.1737C10.1941 63.1596 10.4702 63.1454 10.7512 63.1418C11.1794 64.135 10.6815 65.3451 10.0675 66.1987C9.45354 67.0523 8.68058 67.8137 8.3889 68.8884C8.78121 69.0123 9.23698 68.6696 9.32645 68.2038L9.30539 68.2137ZM25.7822 58.159C25.9065 58.1777 26.0365 58.1808 26.1609 58.1994C26.1781 58.3454 26.0703 58.4988 25.9404 58.4957C25.8104 58.4925 25.6948 58.3286 25.7035 58.1832L25.7772 58.1485L25.7822 58.159ZM22.4152 50.5839C22.5149 50.5499 22.6287 50.5735 22.7097 50.6639C22.6365 50.8909 22.3431 50.9774 22.186 50.8072C22.2251 50.6989 22.3155 50.6179 22.4152 50.5839ZM17.339 55.4224L17.3809 55.6211C17.2875 55.6136 17.1885 55.6216 17.095 55.6141C17.1798 55.5486 17.2647 55.483 17.3495 55.4175L17.339 55.4224ZM14.9759 48.6984C14.9568 48.6304 14.9531 48.5679 14.9445 48.4949C15.0485 48.4974 15.1419 48.5048 15.241 48.4968C15.1561 48.5624 15.0713 48.6279 14.9759 48.6984ZM14.6643 47.4064C14.6823 47.308 14.7517 47.2369 14.8303 47.2128C15.0191 47.1498 15.2815 47.2705 15.2441 47.5192C15.1733 47.8607 14.5984 47.7584 14.6692 47.4169L14.6643 47.4064ZM14.8139 65.4709C14.6784 65.4833 14.5621 65.3453 14.5659 65.1893L14.6396 65.1547C14.7646 65.1473 14.8897 65.14 15.0196 65.1431C15.0523 65.2947 14.9495 65.4586 14.8139 65.4709ZM15.0059 62.735C14.8152 62.876 14.5744 62.9378 14.3522 62.8752C14.3926 62.715 14.5047 62.5981 14.6359 62.5492C14.7938 62.475 14.9906 62.511 15.1118 62.6596L15.0059 62.735ZM17.9905 62.5783C18.1249 62.3995 18.4472 62.6205 18.3536 62.8315L18.3289 62.7789C18.2632 62.9125 18.208 63.0412 18.1528 63.1699C17.9629 63.0665 17.856 62.7571 17.9905 62.5783ZM16.2634 63.8523C16.3791 63.7979 16.5023 63.8684 16.6254 63.939C16.5188 64.0404 16.4018 64.1468 16.2953 64.2483L16.2755 64.2062C16.1294 64.2234 16.121 63.932 16.2423 63.8622C16.2423 63.8622 16.2634 63.8523 16.2739 63.8473L16.2634 63.8523ZM15.5277 60.1266L15.5079 60.0845C15.6065 59.8841 15.7001 59.6731 15.7987 59.4727C16.0063 59.9146 15.8919 60.5462 15.5414 60.8394C15.3156 60.7143 15.3005 60.2719 15.5228 60.1161L15.5277 60.1266ZM14.9306 59.0201C14.7919 59.1624 14.6983 59.3733 14.6721 59.5911C14.5093 59.6548 14.5399 59.2551 14.7114 59.2644L14.7225 59.2335C14.6359 59.1586 14.7227 59.0151 14.8069 58.9755C14.849 58.9557 14.8954 58.9724 14.9201 59.025L14.9306 59.0201ZM14.3061 55.6404L14.3167 55.6354C14.2264 55.498 14.2315 55.2901 14.3288 55.1417C14.4358 55.2327 14.5632 55.3397 14.5699 55.4907C14.5766 55.6417 14.3599 55.7821 14.3061 55.6404ZM14.8731 53.9483C14.7579 53.9768 14.7012 53.7466 14.8064 53.6971C14.9215 53.6687 14.9783 53.8989 14.8731 53.9483ZM14.6651 53.0957C14.7802 53.0672 14.837 53.2974 14.7212 53.3518C14.6061 53.3802 14.5493 53.1501 14.6651 53.0957ZM14.1956 49.3348C14.3009 49.2854 14.4147 49.3089 14.5013 49.3838C14.4331 49.6214 14.1235 49.7283 13.9714 49.5686C14.0055 49.4499 14.0959 49.3688 14.2012 49.3194L14.1956 49.3348ZM13.7411 50.4731C13.9051 50.5759 14.0795 50.6737 14.2435 50.7765C14.1243 51.1792 13.8028 51.5615 13.4235 51.5471L13.2984 51.5545C13.3754 51.1715 13.5354 50.801 13.7306 50.4781L13.7411 50.4731ZM12.8178 52.9106C12.8811 52.6625 13.0602 52.36 13.2385 52.3019C13.3121 52.2673 13.3845 52.2846 13.4557 52.354L13.4333 52.4158C13.4938 52.7085 13.5486 53.0167 13.4327 53.2895C13.3168 53.5623 12.949 53.7094 12.8093 53.4668C12.7141 53.3189 12.7613 53.0912 12.8072 52.9155L12.8178 52.9106ZM12.8527 54.2427C12.7679 54.3083 12.688 54.3844 12.6031 54.4499L12.5562 54.2408C12.6553 54.2328 12.7487 54.2402 12.8477 54.2322L12.8527 54.2427ZM13.5649 58.7115L13.6218 58.7233C13.6933 58.3558 13.7703 57.9728 13.8523 57.6003C14.3229 58.1369 13.9773 59.2883 13.3094 59.371C13.3876 59.1544 13.4762 58.933 13.5699 58.722L13.5649 58.7115ZM13.3377 67.3334L13.4212 67.3198C13.5925 67.5476 13.1627 67.8908 13.0497 67.6229C13.1457 67.5264 13.2417 67.4299 13.3426 67.3439L13.3377 67.3334ZM11.3098 62.6353C11.4911 62.6657 11.5992 62.9231 11.5323 63.1087C11.4548 63.2992 11.214 63.361 11.0766 63.2329C11.1542 63.0423 11.2372 62.8363 11.3203 62.6303L11.3098 62.6353Z"/>
</mask>
<path d="M9.30539 68.2137C10.1675 69.1186 11.388 70.0477 12.3458 69.5976C12.4615 69.5432 12.5724 69.4783 12.6789 69.3769C16.4536 66.0618 20.3711 63.0779 24.4109 60.4089C26.0555 59.3149 27.7298 58.2841 29.1791 56.8838C24.4617 56.853 19.7169 58.7873 15.9631 62.3109C15.6886 61.8362 16.0208 61.2306 16.3331 60.8013C20.0725 55.7433 23.7675 50.5906 27.4601 45.3234C26.3384 45.6708 25.3068 46.3739 24.4984 47.306C24.6071 47.5375 24.6416 47.8295 24.5938 48.0832C24.3791 47.9272 24.1595 47.7607 23.9449 47.6047C22.308 49.016 20.7615 50.5648 19.3212 52.2305C19.7279 52.1935 20.1451 52.1516 20.5567 52.1251C18.0456 53.1253 16.2557 55.6875 14.7122 58.1724C15.9367 53.4228 17.4635 48.4413 16.7188 43.6026C14.3439 46.2598 13.1876 49.9241 12.2325 53.4425C11.5294 56.0205 10.8937 58.6053 10.3206 61.1865C11.4284 59.4971 12.0885 57.4017 12.1507 55.2919C12.7254 56.4602 12.4507 58.1177 11.5495 59.0164C11.8644 59.1124 12.0789 59.4868 12.049 59.8605C11.711 59.8524 11.4669 60.2625 11.3583 60.6603C11.2553 61.0426 11.1924 61.4832 10.936 61.7578C10.6796 62.0324 10.1369 61.8893 10.183 61.4952C10.086 62.0545 10.0045 62.6193 9.91808 63.1737C10.1941 63.1596 10.4702 63.1454 10.7512 63.1418C11.1794 64.135 10.6815 65.3451 10.0675 66.1987C9.45354 67.0523 8.68058 67.8137 8.3889 68.8884C8.78121 69.0123 9.23698 68.6696 9.32645 68.2038L9.30539 68.2137ZM25.7822 58.159C25.9065 58.1777 26.0365 58.1808 26.1609 58.1994C26.1781 58.3454 26.0703 58.4988 25.9404 58.4957C25.8104 58.4925 25.6948 58.3286 25.7035 58.1832L25.7772 58.1485L25.7822 58.159ZM22.4152 50.5839C22.5149 50.5499 22.6287 50.5735 22.7097 50.6639C22.6365 50.8909 22.3431 50.9774 22.186 50.8072C22.2251 50.6989 22.3155 50.6179 22.4152 50.5839ZM17.339 55.4224L17.3809 55.6211C17.2875 55.6136 17.1885 55.6216 17.095 55.6141C17.1798 55.5486 17.2647 55.483 17.3495 55.4175L17.339 55.4224ZM14.9759 48.6984C14.9568 48.6304 14.9531 48.5679 14.9445 48.4949C15.0485 48.4974 15.1419 48.5048 15.241 48.4968C15.1561 48.5624 15.0713 48.6279 14.9759 48.6984ZM14.6643 47.4064C14.6823 47.308 14.7517 47.2369 14.8303 47.2128C15.0191 47.1498 15.2815 47.2705 15.2441 47.5192C15.1733 47.8607 14.5984 47.7584 14.6692 47.4169L14.6643 47.4064ZM14.8139 65.4709C14.6784 65.4833 14.5621 65.3453 14.5659 65.1893L14.6396 65.1547C14.7646 65.1473 14.8897 65.14 15.0196 65.1431C15.0523 65.2947 14.9495 65.4586 14.8139 65.4709ZM15.0059 62.735C14.8152 62.876 14.5744 62.9378 14.3522 62.8752C14.3926 62.715 14.5047 62.5981 14.6359 62.5492C14.7938 62.475 14.9906 62.511 15.1118 62.6596L15.0059 62.735ZM17.9905 62.5783C18.1249 62.3995 18.4472 62.6205 18.3536 62.8315L18.3289 62.7789C18.2632 62.9125 18.208 63.0412 18.1528 63.1699C17.9629 63.0665 17.856 62.7571 17.9905 62.5783ZM16.2634 63.8523C16.3791 63.7979 16.5023 63.8684 16.6254 63.939C16.5188 64.0404 16.4018 64.1468 16.2953 64.2483L16.2755 64.2062C16.1294 64.2234 16.121 63.932 16.2423 63.8622C16.2423 63.8622 16.2634 63.8523 16.2739 63.8473L16.2634 63.8523ZM15.5277 60.1266L15.5079 60.0845C15.6065 59.8841 15.7001 59.6731 15.7987 59.4727C16.0063 59.9146 15.8919 60.5462 15.5414 60.8394C15.3156 60.7143 15.3005 60.2719 15.5228 60.1161L15.5277 60.1266ZM14.9306 59.0201C14.7919 59.1624 14.6983 59.3733 14.6721 59.5911C14.5093 59.6548 14.5399 59.2551 14.7114 59.2644L14.7225 59.2335C14.6359 59.1586 14.7227 59.0151 14.8069 58.9755C14.849 58.9557 14.8954 58.9724 14.9201 59.025L14.9306 59.0201ZM14.3061 55.6404L14.3167 55.6354C14.2264 55.498 14.2315 55.2901 14.3288 55.1417C14.4358 55.2327 14.5632 55.3397 14.5699 55.4907C14.5766 55.6417 14.3599 55.7821 14.3061 55.6404ZM14.8731 53.9483C14.7579 53.9768 14.7012 53.7466 14.8064 53.6971C14.9215 53.6687 14.9783 53.8989 14.8731 53.9483ZM14.6651 53.0957C14.7802 53.0672 14.837 53.2974 14.7212 53.3518C14.6061 53.3802 14.5493 53.1501 14.6651 53.0957ZM14.1956 49.3348C14.3009 49.2854 14.4147 49.3089 14.5013 49.3838C14.4331 49.6214 14.1235 49.7283 13.9714 49.5686C14.0055 49.4499 14.0959 49.3688 14.2012 49.3194L14.1956 49.3348ZM13.7411 50.4731C13.9051 50.5759 14.0795 50.6737 14.2435 50.7765C14.1243 51.1792 13.8028 51.5615 13.4235 51.5471L13.2984 51.5545C13.3754 51.1715 13.5354 50.801 13.7306 50.4781L13.7411 50.4731ZM12.8178 52.9106C12.8811 52.6625 13.0602 52.36 13.2385 52.3019C13.3121 52.2673 13.3845 52.2846 13.4557 52.354L13.4333 52.4158C13.4938 52.7085 13.5486 53.0167 13.4327 53.2895C13.3168 53.5623 12.949 53.7094 12.8093 53.4668C12.7141 53.3189 12.7613 53.0912 12.8072 52.9155L12.8178 52.9106ZM12.8527 54.2427C12.7679 54.3083 12.688 54.3844 12.6031 54.4499L12.5562 54.2408C12.6553 54.2328 12.7487 54.2402 12.8477 54.2322L12.8527 54.2427ZM13.5649 58.7115L13.6218 58.7233C13.6933 58.3558 13.7703 57.9728 13.8523 57.6003C14.3229 58.1369 13.9773 59.2883 13.3094 59.371C13.3876 59.1544 13.4762 58.933 13.5699 58.722L13.5649 58.7115ZM13.3377 67.3334L13.4212 67.3198C13.5925 67.5476 13.1627 67.8908 13.0497 67.6229C13.1457 67.5264 13.2417 67.4299 13.3426 67.3439L13.3377 67.3334ZM11.3098 62.6353C11.4911 62.6657 11.5992 62.9231 11.5323 63.1087C11.4548 63.2992 11.214 63.361 11.0766 63.2329C11.1542 63.0423 11.2372 62.8363 11.3203 62.6303L11.3098 62.6353Z" fill="#E9DBA9" stroke="#E9DBA9" stroke-width="0.134423" mask="url(#path-1-inside-1_387_2821)"/>
<path d="M40.5216 39.8682C38.9899 40.6521 37.3943 41.2995 35.811 41.9793C34.4646 42.5606 33.1326 43.1733 31.8006 43.8121L31.7979 43.8133C31.681 43.8806 31.5276 43.9276 31.3886 43.955L31.3465 43.964L31.3548 43.9816C31.1492 44.0041 30.9755 43.9632 30.8751 43.8013C31.2421 43.5583 31.5363 43.2158 31.7934 42.8325C32.057 42.4394 32.2832 42.0012 32.5089 41.5812L32.5098 41.5808C34.6175 37.6272 37.6725 34.242 41.2999 31.8576C42.2665 31.211 43.2809 30.6446 44.3808 30.3451C45.4929 30.0382 46.6395 30.0165 47.7855 30.013C47.8775 30.6382 48.2474 31.178 48.5842 31.7105C48.9068 32.2204 49.1983 32.7247 49.206 33.3022L49.2036 33.4188C49.1814 33.9073 48.9564 34.3135 48.639 34.6628C48.3213 35.0124 47.9129 35.3035 47.5271 35.5619C45.3602 36.9777 43.2314 38.4427 40.9746 39.6337L40.5216 39.8682ZM33.3843 41.977C33.4013 41.9688 33.4149 41.9546 33.4233 41.936C33.4315 41.9178 33.4336 41.8966 33.4309 41.8741L33.4284 41.8527L33.4072 41.8465C33.2857 41.81 33.2162 41.6735 33.2124 41.5215C33.2086 41.3693 33.272 41.2247 33.3877 41.1758L33.4398 41.1535L33.3952 41.1184C33.3247 41.0628 33.2314 41.0503 33.1528 41.0596C33.0293 41.0744 32.9082 41.1745 32.8598 41.3085L32.8321 41.3851L32.8569 41.3735C32.8453 41.469 32.8689 41.5652 32.9167 41.6432C32.9708 41.7313 33.0568 41.7974 33.1572 41.8128C33.1627 41.8922 33.2213 41.9504 33.2791 41.9735C33.312 41.9866 33.3518 41.9925 33.3843 41.977ZM32.6941 42.6574C32.7663 42.6317 32.8041 42.5518 32.8115 42.4846C32.8153 42.4499 32.812 42.4135 32.7973 42.3834C32.785 42.358 32.7634 42.3404 32.7348 42.3307L32.7253 42.3104L32.6952 42.3245L32.6857 42.3042C32.6262 42.3321 32.5722 42.3641 32.521 42.3945C32.4692 42.4253 32.4203 42.4548 32.3695 42.4787L32.3227 42.5007L32.3611 42.5344C32.4043 42.5717 32.4548 42.6139 32.5093 42.6406C32.5645 42.6677 32.6278 42.6808 32.6941 42.6574Z" fill="#E9DBA9" stroke="#E9DBA9" stroke-width="0.0672114"/>
<path d="M76.0639 26.4156C75.8255 26.6501 75.5173 26.7843 75.1945 26.8846L74.8514 26.9811L74.8458 26.9967C73.2653 27.4193 71.6701 27.8096 70.0765 28.1492C64.9432 29.2457 59.7235 29.9389 54.4321 29.6148C54.6042 29.4766 54.8437 29.4286 55.0493 29.4953L55.077 29.5038L55.0903 29.477C56.0437 27.5101 57.998 26.4202 59.9878 25.6121L60.8399 25.2808L61.7295 24.949C66.1921 23.3206 70.9822 22.1343 75.6913 23.2598C75.6759 23.9231 75.8776 24.5947 76.2525 25.1477L76.2529 25.1485L76.2987 25.223C76.3945 25.4023 76.4152 25.6099 76.3788 25.8113C76.3371 26.0414 76.2213 26.2608 76.0639 26.4156ZM58.7532 27.1181L58.7727 27.0722L58.7728 27.0657C58.7712 26.987 58.7099 26.9455 58.6523 26.94C58.5964 26.9347 58.5278 26.9626 58.5145 27.0349L58.5132 27.0345L58.5144 27.0415C58.5161 27.12 58.5769 27.1608 58.6345 27.1663C58.6765 27.1702 58.7257 27.1561 58.7532 27.1181ZM56.6181 28.3793C56.6371 28.3556 56.6462 28.3252 56.6481 28.2961C56.65 28.2671 56.6447 28.2363 56.6314 28.2101C56.6179 28.1836 56.5949 28.1599 56.5617 28.1512L56.5621 28.1499L56.5534 28.1497C56.5164 28.1489 56.4866 28.1653 56.4664 28.1895C56.4467 28.2132 56.4364 28.2442 56.4337 28.2739C56.431 28.3035 56.4359 28.3353 56.4504 28.3621C56.4653 28.3896 56.4907 28.4124 56.5267 28.419L56.5311 28.4191L56.5812 28.4085C56.5957 28.4015 56.6082 28.3916 56.6181 28.3793Z" fill="#E9DBA9" stroke="#E9DBA9" stroke-width="0.0672114"/>
<path d="M100.679 29.6703C100.201 29.8067 99.6636 29.7172 99.1461 29.6006C97.2137 29.1748 95.3199 28.4487 93.421 27.7732C93.2584 27.7146 93.0965 27.6591 92.9354 27.6032C92.7743 27.5473 92.6137 27.4908 92.4516 27.4324L92.4507 27.4328C91.4165 27.0755 90.3799 26.7307 89.3626 26.3008L88.9282 26.1111C88.6828 25.9967 88.4141 25.8723 88.146 25.8658L88.1198 25.8652C87.0812 25.8491 86.038 25.6786 85.0249 25.3708L84.5932 25.2306C84.2501 25.1069 83.9268 24.9731 83.5991 24.8302C83.6407 24.7406 83.7263 24.6822 83.8276 24.6667C83.9394 24.6497 84.0602 24.6842 84.1373 24.7747L84.1997 24.8479L84.1964 24.7513C84.191 24.5887 84.2733 24.4628 84.4003 24.3631C84.5281 24.2628 84.6982 24.1912 84.8592 24.141C89.6787 22.6326 95.2053 23.0618 100.121 25.3305C100.414 25.4664 100.738 25.6761 100.963 25.925C101.19 26.1743 101.312 26.4563 101.222 26.7413L101.222 26.7422C101.131 27.0326 101.219 27.3439 101.325 27.6511C101.432 27.9624 101.558 28.271 101.56 28.5708C101.567 29.1135 101.155 29.5343 100.679 29.6703ZM87.369 24.6577L87.373 24.6548C87.5938 24.5096 87.6836 24.1816 87.5633 23.9255L87.5475 23.8919L87.5156 23.9112C87.2868 24.0467 87.2113 24.3705 87.3126 24.6433L87.3257 24.6781L87.369 24.6577ZM90.571 25.3316C90.724 25.3449 90.8858 25.2829 90.943 25.1244L90.9476 25.1114L90.9418 25.0991C90.9029 25.0162 90.8344 24.9631 90.7634 24.9283L90.7621 24.9278C90.6255 24.8693 90.4485 24.9051 90.3746 25.0354L90.2324 25.0267L90.1813 25.0237L90.1998 25.0722C90.2593 25.2292 90.4178 25.3182 90.571 25.3316Z" fill="#E9DBA9" stroke="#E9DBA9" stroke-width="0.0672114"/>
<path d="M126.451 40.8183C126.32 40.9033 126.16 40.9026 125.987 40.8541C125.814 40.8056 125.633 40.7101 125.467 40.6152C124.318 39.9477 123.152 39.3007 121.993 38.6643C121.838 38.5786 121.665 38.4521 121.549 38.3105C121.432 38.168 121.378 38.019 121.438 37.8824L121.46 37.8344L121.408 37.8353C121.243 37.8388 121.076 37.7897 120.91 37.714C120.745 37.6382 120.583 37.5361 120.427 37.4361L120.329 37.3743L120.333 37.3832C118.815 36.3992 117.302 35.4001 115.784 34.3913C113.941 33.1711 112.118 31.9162 110.286 30.641C115.857 31.4495 121.455 34.0164 126.178 37.917C126.331 38.0414 126.495 38.2081 126.6 38.3811C126.692 38.5335 126.735 38.6845 126.696 38.816L126.675 38.8714C126.601 39.0236 126.584 39.2037 126.588 39.39C126.593 39.5761 126.619 39.7738 126.639 39.9596C126.659 40.1469 126.671 40.3227 126.648 40.4723C126.631 40.5836 126.594 40.6785 126.528 40.752L126.451 40.8183Z" fill="#E9DBA9" stroke="#E9DBA9" stroke-width="0.0672114"/>
</svg>
