<svg width="60" height="76" viewBox="0 0 60 76" fill="none" xmlns="http://www.w3.org/2000/svg">
<path fill-rule="evenodd" clip-rule="evenodd" d="M56.5047 2.2919L57.0153 2.90774L57.0438 2.88413L57.0695 2.85846L57.0712 2.85673L57.0807 2.84742C57.0897 2.83865 57.1039 2.8249 57.1228 2.80688C57.1606 2.7708 57.2171 2.7179 57.2884 2.65381C57.4319 2.52483 57.631 2.3546 57.8558 2.18629C58.0057 2.07403 58.1601 1.9678 58.3116 1.87669C58.2834 2.01386 58.2521 2.14845 58.2227 2.26841C58.2011 2.3564 58.1812 2.43382 58.1647 2.4985L58.1572 2.5274C58.1448 2.57578 58.1253 2.65178 58.116 2.70309C57.7732 4.60485 57.7804 6.52767 57.7872 8.37408C57.7882 8.63096 57.7891 8.88636 57.7891 9.14001C57.7891 10.8478 57.6699 12.5139 57.5477 14.223C57.5046 14.826 57.4611 15.4342 57.4223 16.0515C57.319 17.6953 57.3472 19.3828 57.3746 21.0252C57.3869 21.7637 57.3991 22.4932 57.3991 23.2054C57.3991 26.1639 57.2694 29.0959 57.138 32.0665C57.1205 32.4629 57.1029 32.86 57.0856 33.258C57.0199 34.7716 56.8414 36.256 56.6583 37.7791C56.5992 38.2709 56.5396 38.7667 56.4831 39.2689C56.4294 39.7467 56.3885 40.2068 56.3486 40.6562C56.269 41.5527 56.1932 42.4064 56.0266 43.2726C55.7323 44.8027 55.6281 46.2922 55.5247 47.7701C55.5076 48.0142 55.4905 48.2581 55.4726 48.5017C55.3701 49.8978 55.2804 51.3613 55.2539 52.7748C55.2464 53.1789 55.2053 53.5805 55.1602 54.0219L55.1539 54.083C55.1195 54.42 55.0837 54.7797 55.0676 55.1521C54.9983 55.1363 54.9216 55.117 54.8359 55.0949C54.8223 55.0914 54.808 55.0876 54.7931 55.0838C54.6373 55.0433 54.4176 54.9863 54.2299 54.9667C53.7447 54.9161 53.2676 54.8102 52.7376 54.6924C52.6595 54.6751 52.5803 54.6575 52.4997 54.6398C51.8934 54.5065 51.2222 54.3699 50.5174 54.3507C48.4513 54.2944 46.3204 53.7566 44.2034 53.2223C44.1377 53.2057 44.0719 53.1891 44.0062 53.1725C43.6013 53.0704 43.168 52.9942 42.7672 52.9237C42.6571 52.9043 42.5494 52.8854 42.4454 52.8665C41.9399 52.7744 41.4926 52.6785 41.0996 52.532C39.7956 52.0459 38.41 51.7519 37.1212 51.4919C37.0122 51.4699 36.9068 51.4495 36.8051 51.4299C36.331 51.3381 35.9381 51.2621 35.6439 51.1137C35.423 51.0023 35.2053 50.9413 35.0427 50.8993C34.9922 50.8862 34.9482 50.8752 34.9087 50.8653C34.8031 50.8388 34.73 50.8205 34.6507 50.7931C33.3383 50.3402 32.0171 49.9166 30.6439 49.5762C29.9215 49.397 29.1568 49.2419 28.4088 49.0901C27.9653 49 27.5276 48.9112 27.108 48.8193C25.9463 48.5648 24.8427 48.2718 23.8269 47.8274C22.6269 47.3024 21.3807 46.8966 20.1585 46.5197C19.9027 46.4408 19.6484 46.3633 19.3958 46.2863C18.4292 45.9917 17.4857 45.7041 16.5619 45.3707C15.9808 45.161 15.3912 44.9403 14.7949 44.7172C13.0081 44.0486 11.1608 43.3573 9.29923 42.8686C9.07354 42.8093 8.86735 42.6889 8.56792 42.4944C8.54569 42.48 8.52269 42.4649 8.49894 42.4494C8.23389 42.2761 7.87596 42.042 7.45497 41.9005C7.03618 41.7597 6.58254 41.985 6.44173 42.4038C6.30092 42.8226 6.52626 43.2762 6.94505 43.417C7.16518 43.491 7.36082 43.6182 7.66995 43.819L7.69628 43.8362C7.99174 44.0281 8.39108 44.2844 8.89295 44.4161C10.6689 44.8824 12.4061 45.5323 14.1723 46.1931C14.7834 46.4217 15.3979 46.6516 16.0188 46.8757C16.9844 47.2242 17.9776 47.5268 18.9487 47.8228C19.1965 47.8983 19.4429 47.9734 19.687 48.0486C20.9004 48.4229 22.0736 48.8067 23.1856 49.2932C24.3461 49.801 25.5708 50.1205 26.7656 50.3822C27.2402 50.4862 27.6995 50.5792 28.1499 50.6704C28.8663 50.8154 29.5605 50.956 30.2588 51.1291C31.5658 51.4532 32.8363 51.8596 34.1288 52.3056C34.2805 52.358 34.4451 52.399 34.5642 52.4287C34.5932 52.4359 34.6194 52.4425 34.6422 52.4484C34.7816 52.4844 34.8621 52.5114 34.9234 52.5423C35.4391 52.8024 36.1084 52.9284 36.5756 53.0163C36.6591 53.032 36.7362 53.0465 36.8048 53.0603C38.0985 53.3213 39.3694 53.5946 40.5407 54.0312C41.0756 54.2306 41.6419 54.3465 42.1588 54.4406C42.285 54.4636 42.4072 54.4851 42.5261 54.5061C42.9167 54.5749 43.2722 54.6375 43.6149 54.7239C43.7012 54.7457 43.788 54.7676 43.8751 54.7896C45.9421 55.3118 48.2266 55.8889 50.4738 55.9501C51.0133 55.9648 51.5546 56.0702 52.1562 56.2025C52.2306 56.2188 52.3063 56.2357 52.3831 56.2528C52.9055 56.3692 53.48 56.4972 54.0638 56.5581C54.1212 56.5641 54.2227 56.5891 54.4366 56.6442C54.6142 56.69 54.8624 56.7539 55.1046 56.783C55.3209 56.809 55.6967 56.8314 56.0439 56.6448C56.4874 56.4066 56.6588 55.9671 56.6588 55.5438C56.6588 55.1238 56.6988 54.7044 56.7457 54.2455C56.7483 54.2192 56.751 54.1928 56.7538 54.1662C56.7974 53.7406 56.8448 53.2777 56.8536 52.8047C56.8793 51.4345 56.9666 50.0047 57.0683 48.6189C57.0869 48.3655 57.1045 48.1155 57.1219 47.8682C57.2259 46.3866 57.3231 45.0029 57.5978 43.5749C57.7796 42.63 57.8684 41.6357 57.9526 40.6932C57.991 40.2641 58.0283 39.8457 58.0731 39.4476C58.1264 38.9731 58.184 38.4949 58.2419 38.0136C58.4268 36.4766 58.6154 34.9078 58.6841 33.3275C58.7013 32.9309 58.7189 32.5343 58.7364 32.1377C58.8677 29.171 58.9991 26.2017 58.9991 23.2054C58.9991 22.4348 58.9863 21.6739 58.9736 20.9195C58.9465 19.3105 58.9199 17.7314 59.0192 16.1519C59.056 15.5653 59.0982 14.976 59.1405 14.3841C59.264 12.6585 59.3891 10.9099 59.3891 9.14001C59.3891 8.87868 59.3883 8.61934 59.3874 8.36181C59.3814 6.50109 59.3756 4.73449 59.6906 2.98692C59.6898 2.99158 59.6894 2.9945 59.6894 2.9945C59.6894 2.9945 59.6946 2.97379 59.7108 2.91039L59.7147 2.89524C59.7312 2.8309 59.753 2.74594 59.7766 2.6494C59.8274 2.4423 59.8901 2.16918 59.9357 1.8943C59.9786 1.63593 60.0183 1.30978 59.991 1.02191C59.9781 0.884836 59.9429 0.6657 59.8145 0.45909C59.6564 0.204701 59.3697 0 58.9948 0C58.5648 0 58.1536 0.154884 57.8282 0.317357C57.4898 0.486298 57.1674 0.702884 56.8967 0.90561C56.6234 1.11027 56.3867 1.31302 56.2189 1.46376C56.1346 1.53954 56.0666 1.60319 56.0188 1.6487C55.9989 1.6677 55.9825 1.68359 55.9698 1.69593L55.9542 1.70867C55.9269 1.73085 55.8868 1.76317 55.8372 1.80256C55.7374 1.88168 55.6009 1.9876 55.4526 2.09634C55.3027 2.20621 55.149 2.3128 55.0134 2.39633C54.8732 2.48268 54.8031 2.51223 54.7934 2.51635L54.7922 2.51686C54.25 2.67068 53.7047 3.04226 53.2915 3.33132C53.2182 3.38261 53.148 3.43205 53.0807 3.4795C52.7111 3.73987 52.4271 3.93992 52.1841 4.05255C51.8375 4.21317 51.5103 4.45879 51.2504 4.6622C51.1735 4.72244 51.102 4.77921 51.0347 4.83271C50.8482 4.98098 50.6932 5.10416 50.5395 5.20659C50.1504 5.4659 49.7856 5.75457 49.4497 6.0204C49.4254 6.03958 49.4014 6.05863 49.3774 6.07755C49.0119 6.3665 48.676 6.62805 48.3223 6.85269C48.1617 6.95466 48.0027 7.04865 47.8319 7.1496C47.7846 7.17756 47.7364 7.20604 47.687 7.23538C47.466 7.36666 47.2291 7.51048 46.993 7.67538C46.7808 7.82356 46.6256 7.99448 46.5229 8.10877L46.5021 8.13184C46.3996 8.24598 46.3493 8.30199 46.2884 8.35187C45.9298 8.64577 45.5746 8.84213 45.1018 9.10348C45.0422 9.13644 44.9807 9.17043 44.9171 9.20578C44.3233 9.53582 43.7994 9.99045 43.3404 10.4198C43.1798 10.5699 43.0302 10.7138 42.8867 10.8519C42.5953 11.1321 42.329 11.3883 42.0469 11.624C41.2181 12.3167 40.4486 13.0221 39.6932 13.7187C39.6408 13.767 39.5884 13.8153 39.5361 13.8636C38.8313 14.5138 38.1362 15.155 37.396 15.7892C36.7127 16.3746 36.0211 16.9216 35.3176 17.4779C35.0057 17.7246 34.6915 17.973 34.3747 18.2275C33.356 19.0457 32.3348 19.9073 31.3853 20.8977C30.7201 21.5916 29.9624 22.1897 29.1519 22.8085C29.0601 22.8785 28.9676 22.9489 28.8744 23.0198C28.1583 23.5644 27.4054 24.1371 26.7103 24.7835C26.0605 25.3878 25.6621 25.7106 25.0493 26.2071C24.9838 26.2603 24.9158 26.3153 24.8448 26.373C24.1053 26.9731 23.0654 27.8275 21.1151 29.5393C19.1606 31.2548 18.3896 31.9044 17.8456 32.2867C17.5221 32.514 17.3017 32.6346 16.9496 32.8274C16.6941 32.9672 16.3693 33.145 15.8854 33.429C14.5463 34.2151 13.5947 35.1224 12.7081 35.9897C12.6588 36.0379 12.6097 36.086 12.5608 36.1339C11.7236 36.9539 10.9344 37.7271 9.86354 38.4337C9.51658 38.6626 9.16748 38.911 8.831 39.1504C8.70338 39.2412 8.57758 39.3307 8.45439 39.4173C7.995 39.7405 7.5531 40.0382 7.10445 40.2871C6.7181 40.5014 6.57865 40.9884 6.79299 41.3747C7.00733 41.7611 7.49429 41.9005 7.88065 41.6862C8.40645 41.3945 8.90492 41.0567 9.37501 40.726C9.51378 40.6283 9.64878 40.5323 9.78147 40.4379C10.1092 40.2047 10.4228 39.9816 10.7448 39.7691C11.9482 38.975 12.8379 38.1029 13.6623 37.2948C13.7174 37.2407 13.7723 37.1869 13.827 37.1334C14.7049 36.2746 15.5378 35.4883 16.6953 34.8089C17.0616 34.5939 17.3585 34.4301 17.6193 34.2862C18.0496 34.0488 18.3817 33.8655 18.7655 33.5958C19.3963 33.1525 20.2407 32.4356 22.1705 30.7418C24.1044 29.0445 25.1285 28.2034 25.8531 27.6153C25.9237 27.5579 25.9918 27.5027 26.0579 27.4492C26.6728 26.9511 27.109 26.5976 27.7999 25.9552C28.433 25.3664 29.1195 24.8439 29.8426 24.2937C29.9354 24.223 30.0288 24.152 30.1228 24.0802C30.935 23.4601 31.7812 22.7968 32.5403 22.005C33.4172 21.0903 34.3743 20.28 35.3766 19.475C35.6732 19.2368 35.976 18.9972 36.282 18.7552C36.997 18.1897 37.7291 17.6108 38.437 17.0043C39.2005 16.3501 39.9162 15.6899 40.617 15.0433C40.6707 14.9937 40.7243 14.9443 40.7779 14.8949C41.5339 14.1977 42.2775 13.5165 43.0729 12.8517C43.3983 12.5797 43.7328 12.2584 44.0459 11.9574C44.1797 11.8288 44.3096 11.704 44.4333 11.5883C44.8738 11.1763 45.28 10.8346 45.6944 10.6043C45.7541 10.5711 45.8143 10.5379 45.8749 10.5045C46.3366 10.2502 46.8238 9.98177 47.3026 9.58937C47.4646 9.45662 47.5976 9.30751 47.6843 9.21029C47.6944 9.19891 47.7039 9.18824 47.7128 9.17838C47.8113 9.0688 47.861 9.02077 47.909 8.98718C48.0946 8.85758 48.2896 8.73841 48.5041 8.611C48.5464 8.58587 48.5899 8.56017 48.6343 8.53394C48.808 8.43132 48.9956 8.32047 49.1801 8.20333C49.6124 7.92877 50.008 7.61868 50.3697 7.33268L50.4299 7.28511C50.7776 7.01009 51.0941 6.7597 51.4268 6.538C51.6418 6.39474 51.8725 6.21113 52.0726 6.05197C52.1302 6.00615 52.1852 5.96237 52.2366 5.92215C52.4969 5.71843 52.6954 5.57904 52.8568 5.50422C53.2443 5.32465 53.6723 5.02168 54.031 4.76773C54.0924 4.72421 54.1519 4.68213 54.2087 4.64235C54.6598 4.32682 54.9889 4.1242 55.2289 4.05612C55.4548 3.99203 55.6842 3.86232 55.8524 3.75867C56.0389 3.64381 56.2308 3.50969 56.3985 3.38679C56.5677 3.26275 56.7208 3.14384 56.8312 3.05632C56.8866 3.01239 56.9318 2.97594 56.9635 2.95017L57.0006 2.91984L57.0109 2.91137L57.0153 2.90774C57.0153 2.90774 57.0153 2.90774 56.5047 2.2919Z" fill="#FCAF00"/>
<path fill-rule="evenodd" clip-rule="evenodd" d="M27.4017 50.4001C27.8435 50.4001 28.2017 50.7582 28.2017 51.2001C28.2017 51.812 28.2035 52.4257 28.2053 53.0407C28.2129 55.633 28.2205 58.2489 28.0943 60.8592C28.0829 61.0966 28.0693 61.3231 28.0562 61.5436C28.0512 61.6274 28.0462 61.7104 28.0414 61.7928C28.0545 61.7855 28.0676 61.7782 28.0806 61.771C28.0951 61.763 28.1095 61.755 28.1239 61.747C28.4019 61.5929 28.653 61.4538 28.8911 61.3009C30.3634 60.3559 31.773 59.4038 33.0865 58.3121C33.4055 58.047 33.7276 57.7712 34.0545 57.4912C35.0499 56.6389 36.0903 55.7481 37.2258 55.0022C37.3255 54.9367 37.4469 54.8632 37.5621 54.7935C37.5863 54.7789 37.6102 54.7644 37.6336 54.7502C37.7769 54.6631 37.9186 54.5755 38.0513 54.4853C38.1854 54.3941 38.2956 54.3101 38.3781 54.2344C38.4565 54.1624 38.4828 54.1224 38.4863 54.117C38.6863 53.723 39.1681 53.5653 39.5621 53.7653C39.9561 53.9652 40.1134 54.4467 39.9134 54.8407C39.6913 55.2783 39.2472 55.607 38.9509 55.8084C38.7822 55.9231 38.6111 56.0285 38.4643 56.1176C38.4349 56.1355 38.4069 56.1524 38.3804 56.1685C38.2663 56.2376 38.177 56.2917 38.1042 56.3395C37.0614 57.0245 36.1317 57.8203 35.1571 58.6545C34.8156 58.9469 34.4685 59.2439 34.1092 59.5426C32.7187 60.6983 31.2428 61.6926 29.7554 62.6474C29.4721 62.8292 29.1787 62.9918 28.9114 63.1399C28.893 63.1501 28.8747 63.1602 28.8565 63.1703C28.5659 63.3314 28.3055 63.4778 28.0639 63.6389C28.0375 63.6565 28.0143 63.6747 27.9685 63.7107C27.9599 63.7175 27.9505 63.7249 27.9401 63.7331C27.9384 63.7344 27.9361 63.7362 27.9333 63.7385C27.8954 63.7687 27.7644 63.8733 27.6115 63.9346C27.5185 63.9719 27.3176 64.0359 27.0722 63.9749C26.7939 63.9057 26.6212 63.719 26.5317 63.5594C26.4536 63.42 26.4273 63.2854 26.416 63.2083C26.4034 63.1221 26.4 63.0371 26.4 62.9621C26.4 62.4333 26.4318 61.9007 26.4619 61.3946C26.4744 61.1851 26.4866 60.9802 26.4962 60.7819C26.6202 58.2167 26.6128 55.6518 26.6053 53.0627C26.6035 52.4433 26.6017 51.8226 26.6017 51.2001C26.6017 50.7582 26.9599 50.4001 27.4017 50.4001Z" fill="#FCAF00"/>
<path fill-rule="evenodd" clip-rule="evenodd" d="M58.7576 1.68434C59.1529 1.8818 59.3132 2.36229 59.1157 2.75754C58.9283 3.1327 58.5605 3.76873 58.1729 4.43892C58.0599 4.63429 57.9452 4.83255 57.8328 5.02811C57.3087 5.94028 56.8432 6.77905 56.6787 7.20071C56.1189 8.6353 55.7867 9.33405 55.3546 9.99441C55.151 10.3056 54.9292 10.6021 54.6707 10.9476L54.6491 10.9764C54.3785 11.3382 54.053 11.7738 53.6287 12.3798C53.2848 12.8709 52.6811 13.9568 52.0904 15.1106C51.5021 16.2598 50.9685 17.3944 50.7545 17.9656C50.4489 18.7811 50.0132 19.5007 49.5843 20.1587C49.4677 20.3375 49.3531 20.5098 49.241 20.6783C48.9273 21.1499 48.6332 21.5918 48.3704 22.0659C46.985 24.5647 45.3914 27.0507 43.7657 29.412C43.0283 30.4829 42.2626 31.4013 41.5338 32.2754C41.4179 32.4145 41.3028 32.5525 41.189 32.6897C40.3531 33.6979 39.5683 34.6841 38.8622 35.8795C38.1487 37.0874 37.4346 38.0842 36.7921 38.9809C36.7494 39.0405 36.707 39.0997 36.665 39.1585C35.9837 40.1103 35.4012 40.9417 34.9397 41.8486C34.131 43.4379 33.2717 44.3642 32.2296 45.4875C32.0779 45.6511 31.9222 45.8188 31.7623 45.9935C31.256 46.5463 30.7035 47.0494 30.1819 47.5244C30.129 47.5726 30.0763 47.6206 30.024 47.6683L30.0213 47.6708C29.9005 47.781 29.7792 47.8917 29.6806 48.0076C29.6325 48.0642 29.6039 48.106 29.5892 48.1323C29.5197 48.5482 29.136 48.8423 28.7118 48.7952C28.2726 48.7464 27.9562 48.3509 28.0049 47.9118C28.0518 47.4894 28.3062 47.154 28.4617 46.9711C28.6279 46.7757 28.8157 46.6046 28.9257 46.5045C28.9326 46.4982 28.9392 46.4921 28.9455 46.4864C28.9968 46.4396 29.0478 46.3931 29.0986 46.3469C29.6289 45.8637 30.1278 45.4092 30.5824 44.9128C30.7504 44.7294 30.9101 44.5568 31.0628 44.3919C32.1023 43.2692 32.8113 42.5035 33.5137 41.123C34.0372 40.0943 34.6879 39.1718 35.3638 38.2273C35.4042 38.1709 35.4447 38.1143 35.4853 38.0576C36.1314 37.1556 36.8081 36.2109 37.4846 35.0657C38.2585 33.7556 39.1112 32.6889 39.9574 31.6684C40.0754 31.5261 40.193 31.385 40.3102 31.2443C41.0404 30.3682 41.7554 29.5103 42.4478 28.5046C44.0546 26.1709 45.6182 23.7302 46.9711 21.2901C47.2681 20.7543 47.6139 20.2347 47.9376 19.7484C48.0429 19.5902 48.1458 19.4355 48.244 19.2849C48.6579 18.65 49.0143 18.0498 49.2562 17.4042C49.5051 16.7397 50.076 15.5343 50.6662 14.3815C51.2541 13.2332 51.9029 12.0549 52.3181 11.462C52.7573 10.8348 53.095 10.3828 53.368 10.0179L53.3702 10.0149C53.6449 9.64777 53.84 9.38702 54.0157 9.11841C54.3546 8.60043 54.6388 8.02682 55.1881 6.61909C55.4065 6.05942 55.9462 5.10002 56.4456 4.23097C56.5705 4.0136 56.6938 3.80019 56.8123 3.59538C57.1922 2.93822 57.521 2.36956 57.6844 2.04247C57.8819 1.64722 58.3624 1.48688 58.7576 1.68434Z" fill="#FCAF00"/>
<path fill-rule="evenodd" clip-rule="evenodd" d="M14.1748 55.2074C14.6126 55.1477 15.0159 55.4543 15.0755 55.892C15.2646 57.2794 15.2537 58.5452 14.9359 59.7574C14.6166 60.975 14.0009 62.0882 13.0514 63.1892C12.4 63.9446 11.5464 64.8775 10.5848 65.6734C9.63525 66.4593 8.50753 67.1736 7.30419 67.3944C7.30014 67.3951 7.29608 67.3958 7.29203 67.3966C6.41908 69.5815 5.10114 71.5606 3.53091 73.2297C3.13944 73.6459 2.71416 73.9546 2.34266 74.2176C2.30845 74.2418 2.27478 74.2656 2.24163 74.289C1.89987 74.5303 1.61319 74.7327 1.34899 74.982C1.02761 75.2852 0.521291 75.2705 0.218095 74.9491C-0.0851012 74.6277 -0.0703607 74.1214 0.251019 73.8182C0.602746 73.4864 0.98296 73.2185 1.31167 72.9868C1.34786 72.9613 1.38343 72.9363 1.41826 72.9116C1.78496 72.6521 2.09364 72.4224 2.36552 72.1334C3.77897 70.6309 4.95601 68.8712 5.74674 66.9494C5.37322 66.6741 5.03588 66.3064 4.75096 65.9404C4.15784 65.1785 3.67584 64.2724 3.47493 63.7576C3.16804 62.9712 3.00715 62.0846 3.16403 61.2432C3.32685 60.3699 3.82766 59.5878 4.74225 59.09C5.59214 58.6274 6.45138 58.4419 7.18863 58.8325C7.89681 59.2076 8.18618 59.9599 8.31258 60.5871C8.57109 61.8697 8.33574 63.5682 8.14236 64.5412C8.07657 64.8722 8.00025 65.2 7.91395 65.5243C8.45319 65.2748 9.00954 64.9002 9.56461 64.4408C10.4227 63.7306 11.2075 62.8774 11.8398 62.1443C12.658 61.1955 13.1408 60.295 13.3882 59.3516C13.637 58.4026 13.6608 57.36 13.4902 56.1081C13.4305 55.6703 13.7371 55.2671 14.1748 55.2074ZM6.31333 65.3114C6.41373 64.9548 6.50058 64.594 6.57305 64.2293C6.76196 63.2788 6.93516 61.851 6.74412 60.9032C6.64574 60.4151 6.49581 60.2761 6.43962 60.2463C6.4125 60.232 6.1823 60.1279 5.50714 60.4953C5.03974 60.7497 4.81667 61.1087 4.73693 61.5364C4.65124 61.996 4.72909 62.5703 4.96544 63.1759C5.10965 63.5454 5.51452 64.3166 6.01347 64.9575C6.11489 65.0878 6.21537 65.2064 6.31333 65.3114Z" fill="#FCAF00"/>
</svg>
