<svg width="100" height="101" viewBox="0 0 100 101" fill="none" xmlns="http://www.w3.org/2000/svg">
<path d="M30.8664 18.5175C31.6824 19.8745 32.6424 21.155 33.7664 22.2627C34.3264 22.8176 34.9164 23.3382 35.5484 23.8026C36.1804 24.265 36.8424 24.6791 37.5344 25.0349C38.1184 25.3385 38.7284 25.5797 39.3464 25.7928L39.4124 25.8149C40.0724 26.0441 40.4244 26.7678 40.1964 27.4312C40.0804 27.771 39.8324 28.0303 39.5324 28.171C38.5044 28.6495 37.4664 29.0716 36.4724 29.5018C35.6064 29.8778 34.7744 30.2497 34.0024 30.6738C33.2284 31.094 32.5224 31.5805 31.8644 32.1374C31.7004 32.2761 31.5364 32.4168 31.3824 32.5696L31.1464 32.7927C31.0704 32.8671 31.0184 32.9375 30.9544 33.0078C30.8304 33.1505 30.7004 33.2792 30.5844 33.4581C30.4664 33.629 30.3404 33.7818 30.2284 33.9667L29.8924 34.5176C29.7824 34.7045 29.6824 34.9055 29.5784 35.0985L29.4224 35.39L29.2784 35.6956L28.9904 36.3047C28.2584 37.9652 27.6524 39.7182 27.1444 41.4953C26.9004 42.3859 26.6624 43.2805 26.4764 44.1771C26.2904 45.0697 26.1224 45.9723 26.0404 46.8247C25.9604 47.6589 25.2224 48.2701 24.3924 48.1897C23.7604 48.1273 23.2564 47.6831 23.0884 47.1041L23.0844 47.086C22.7704 45.9964 22.5724 44.9611 22.3784 43.9338L21.8364 40.8963C21.5404 39.2498 21.2244 37.6255 20.7864 36.1097C20.5624 35.3599 20.3004 34.6402 19.9944 34.019L19.7524 33.5888C19.6564 33.442 19.5504 33.2913 19.4504 33.1425C19.2344 32.849 19.0104 32.5575 18.7584 32.2801C18.2644 31.7212 17.7104 31.1925 17.1164 30.696C16.5184 30.2054 15.8844 29.7451 15.2244 29.3169C13.9044 28.4625 12.4784 27.7388 11.0184 27.1659C10.1984 26.8442 9.79239 25.9134 10.1144 25.0892C10.2784 24.665 10.6024 24.3514 10.9904 24.1906L11.0044 24.1846C12.1584 23.7101 13.3104 23.2337 14.3844 22.6728C15.4784 22.134 16.4844 21.5028 17.4104 20.8012L18.0884 20.2584L18.7104 19.6654C18.9284 19.4764 19.1044 19.2513 19.2944 19.0382C19.4764 18.819 19.6844 18.62 19.8404 18.3768L20.3424 17.6792C20.5004 17.438 20.6384 17.1806 20.7884 16.9354L21.0104 16.5615C21.0784 16.4308 21.1384 16.2961 21.2024 16.1654L21.5844 15.3714C22.2384 13.8516 22.8104 12.2192 23.2984 10.5707C23.4064 10.1727 23.5224 9.81085 23.6464 9.48518C23.7084 9.32235 23.7724 9.16755 23.8384 9.0208C23.8564 8.97657 23.8664 8.96652 23.8804 8.94642C23.8924 8.92833 23.9064 8.91023 23.9204 8.89415C23.9484 8.85998 23.9784 8.82781 24.0124 8.79565C24.1444 8.66699 24.3264 8.53431 24.5024 8.34936C24.6804 8.16642 24.8464 7.93925 24.9784 7.70003C25.3624 6.99039 25.4144 6.56621 25.6604 6.84163C25.7204 6.91199 25.7924 7.03059 25.8724 7.21554C25.9524 7.39848 26.0384 7.65379 26.1004 7.97946C26.1624 8.30312 26.1924 8.69312 26.1784 9.10121C26.1744 9.20173 26.1684 9.31029 26.1624 9.40477C26.1564 9.47312 26.1524 9.54348 26.1464 9.61585C26.1344 9.7606 26.1184 9.90936 26.0984 10.0642C26.0504 10.4562 25.9924 10.8542 25.9284 11.2583C25.8604 11.6623 25.7564 12.0684 25.6624 12.4765C25.4884 13.2947 25.1944 14.1069 24.9304 14.8909C24.7924 15.2447 24.6404 15.5945 24.4964 15.9463L24.2784 16.473L24.0224 16.9877C23.8464 17.3294 23.6864 17.6772 23.4964 18.0109L22.8944 19.002C22.0404 20.2966 21.0064 21.4847 19.8364 22.4939L18.9364 23.2156C18.6304 23.4448 18.3124 23.6498 17.9984 23.8689C17.6884 24.0941 17.3624 24.277 17.0384 24.47C16.7144 24.661 16.3944 24.864 16.0624 25.0269L15.0764 25.5455L14.0804 26.02L13.5824 26.2552L13.0824 26.4743L12.0804 26.9146L12.0684 24.4178C13.5944 24.9786 15.0624 25.6601 16.4744 26.4723C17.3924 27.001 18.3084 27.59 19.1664 28.2735C20.0244 28.955 20.8224 29.733 21.4744 30.6135C21.6864 30.9191 21.9084 31.2106 22.1004 31.5343C22.1984 31.6971 22.3024 31.8398 22.3944 32.0208L22.6684 32.5474C22.7684 32.7244 22.8224 32.8952 22.9004 33.0701C22.9704 33.243 23.0504 33.4179 23.1104 33.5888C23.2224 33.9305 23.3584 34.2763 23.4504 34.614C23.8584 35.973 24.1344 37.3079 24.3884 38.6306C24.6384 39.9534 24.8544 41.2662 25.0764 42.5568C25.3004 43.8434 25.5244 45.128 25.8324 46.2879L23.1864 46.5211C23.3064 45.4637 23.5164 44.4827 23.7524 43.5056C24.0384 42.3397 24.3684 41.1978 24.7344 40.062C25.0984 38.9262 25.4964 37.8004 25.9564 36.6887C26.4164 35.577 26.9084 34.4733 27.5404 33.3978C27.8584 32.8611 28.1984 32.3283 28.6084 31.8097C28.6584 31.7453 28.7044 31.679 28.7604 31.6147L28.9344 31.4237L29.2864 31.0457C29.4044 30.9191 29.5184 30.8286 29.6364 30.7201C29.7544 30.6155 29.8664 30.507 29.9884 30.4085C30.6264 29.8597 31.3244 29.3712 32.0464 28.943C32.7684 28.5148 33.5124 28.1549 34.2484 27.8333C35.7244 27.194 37.1484 26.6713 38.5044 26.03L38.6624 28.0544C37.3424 27.6282 36.0904 27.0231 34.9344 26.2873C33.7844 25.5415 32.7324 24.667 31.7784 23.7061C30.8304 22.7392 29.9844 21.6817 29.2344 20.564C28.4864 19.4483 27.8544 18.2401 27.3224 17.0218C26.6444 15.4558 26.1744 13.8757 25.8704 12.3418C25.5624 10.808 25.4224 9.31632 25.4204 7.90106C25.4224 7.36833 25.5364 7.04668 25.7024 6.95822L25.5204 7.42059C25.4764 7.4608 25.4104 7.49699 25.3444 7.51307C25.2784 7.52915 25.2164 7.52915 25.1724 7.52513C25.0824 7.51508 25.0484 7.50302 25.0404 7.51508C25.0364 7.52513 25.0604 7.56333 25.1604 7.60152C25.2104 7.61962 25.2824 7.6357 25.3664 7.62766C25.4504 7.62163 25.5424 7.59147 25.6104 7.54925L25.8544 6.92807C26.0704 6.95219 26.3244 7.29194 26.5404 7.94931C27.1864 9.91941 27.8544 11.9579 28.6344 13.8978C29.2704 15.49 29.9344 17.1002 30.8164 18.5195C30.8304 18.5155 30.8444 18.5115 30.8624 18.5075L30.8664 18.5175Z" fill="#F88A21"/>
<path d="M65.7676 38.9734C66.0376 39.7614 66.3256 40.5434 66.6256 41.3134C66.7016 41.5023 66.7776 41.7034 66.8536 41.8803C66.9296 42.0471 66.9956 42.22 67.0796 42.3848C67.2416 42.7145 67.4196 43.0382 67.6176 43.3478C68.4116 44.5922 69.5156 45.6576 70.8216 46.4899C71.9336 47.2156 73.1916 47.7785 74.4996 48.2047C75.1596 48.4198 75.5196 49.1314 75.3076 49.7928C75.2036 50.1165 74.9816 50.3678 74.7076 50.5165L74.6736 50.5346C74.3976 50.6834 74.1176 50.8181 73.8516 50.987C72.3176 51.9137 70.9396 53.1661 69.7416 54.5713C68.5416 55.9786 67.5216 57.5526 66.7016 59.2131C65.8836 60.8737 65.2616 62.6287 64.9336 64.4078C64.6076 66.1829 64.5756 67.9902 64.9796 69.6306L62.0056 70.2417C61.6916 68.4968 61.3856 66.7639 61.0136 65.0692C60.6796 63.5434 60.2996 62.0417 59.8236 60.5902C59.3456 59.1408 58.7736 57.7396 58.0776 56.4208C57.9016 56.0952 57.7156 55.7695 57.5316 55.4519C57.3436 55.1423 57.1496 54.8387 56.9416 54.5492C56.5276 53.9662 56.0756 53.4255 55.5876 52.951C54.6096 51.9981 53.4796 51.3609 52.3216 51.2061C51.4496 51.0895 50.8356 50.2834 50.9516 49.4069C51.0196 48.8983 51.3156 48.4781 51.7216 48.2369L51.7336 48.2308C52.7916 47.6117 53.7696 46.8739 54.6156 45.9934C54.8356 45.7823 55.0276 45.543 55.2336 45.3179C55.4236 45.0767 55.6236 44.8455 55.8016 44.5942C56.1716 44.1037 56.5016 43.577 56.8076 43.0342C58.0356 40.859 58.7716 38.3502 59.2316 35.7729C59.5296 34.0863 59.8176 32.3534 60.0276 30.6306C60.1256 29.8063 60.2716 29.1249 60.4536 28.566C60.5436 28.2866 60.6456 28.0373 60.7556 27.8161C60.8096 27.6392 60.8816 27.4422 60.9676 27.2955C61.0536 27.1427 61.1496 27.0301 61.2276 26.9597C61.6756 26.616 61.3316 27.2211 61.8656 27.7116C61.9956 27.8222 62.1856 27.8604 62.3096 27.8423C62.3716 27.8403 62.4176 27.8181 62.4476 27.8342C62.4756 27.9287 62.5036 28.0272 62.5276 28.1338C62.6316 28.5579 62.6996 29.0826 62.7216 29.6978C62.7756 31.2558 62.6516 32.9665 62.3956 34.5728C62.1496 36.1187 61.8336 37.6586 61.3996 39.1824C61.1816 39.9423 60.9396 40.7002 60.6536 41.444C60.3716 42.1898 60.0556 42.9276 59.6916 43.6453C58.9736 45.0847 58.0676 46.4557 56.9756 47.676C56.4256 48.2831 55.8356 48.854 55.2036 49.3807C54.5676 49.8994 53.8976 50.3738 53.1996 50.804L52.6976 48.265C54.1476 48.4278 55.5136 49.0209 56.6376 49.821C57.5836 50.4904 58.4236 51.2965 59.1236 52.171C59.4796 52.6073 59.7976 53.0616 60.0856 53.526L60.2956 53.8758C60.3596 53.9924 60.4216 54.109 60.4856 54.2256C60.6076 54.4588 60.7336 54.69 60.8416 54.9252C61.9716 57.3275 62.7576 59.8203 63.3756 62.307C63.9916 64.7978 64.4356 67.2926 64.8436 69.7532L64.8476 69.7773C64.9696 70.5191 64.4716 71.2227 63.7316 71.3454C63.0196 71.464 62.3436 70.9996 62.1856 70.3C61.8816 68.941 61.7996 67.562 61.9096 66.2251C62.1216 63.7203 62.8256 61.336 63.8276 59.1146C64.8396 56.8973 66.1556 54.8307 67.7616 53.0033C69.3976 51.1458 71.3416 49.5094 73.6416 48.3937L73.7956 50.4683C73.0676 50.215 72.3416 49.9537 71.6356 49.622C70.9276 49.3043 70.2376 48.9304 69.5716 48.5103C68.9036 48.0961 68.2716 47.6117 67.6776 47.0829C67.0836 46.5542 66.5336 45.9652 66.0536 45.3219C65.5716 44.6806 65.1516 43.9911 64.8096 43.2654C64.7296 43.0844 64.6376 42.8975 64.5656 42.7226L64.3516 42.2019C64.2096 41.8541 64.0756 41.5063 63.9416 41.1565C63.4116 39.7594 62.9256 38.3522 62.4856 36.9248C61.9956 35.3327 61.6176 33.7465 61.4156 32.1926C61.2196 30.6446 61.1796 29.1068 61.4856 27.7196C61.5816 27.3638 61.7016 27.1266 61.8276 27.014L61.7996 26.8552C61.7876 26.7828 61.7496 26.6964 61.6936 26.628C61.6376 26.5577 61.5736 26.5094 61.5236 26.4753C61.4236 26.4069 61.3716 26.3707 61.3616 26.3305C61.3556 26.2943 61.3816 26.2441 61.5416 26.232C61.6196 26.228 61.7436 26.2441 61.8816 26.3185C62.0196 26.3888 62.1476 26.5195 62.2256 26.6421L62.3016 27.0643C62.3676 27.1467 62.4236 27.2673 62.4696 27.4201C62.5176 27.5749 62.5356 27.7558 62.5776 27.993C62.6156 28.2303 62.6336 28.4614 62.6856 28.7047C62.7316 28.9459 62.7776 29.1892 62.8256 29.4324C62.9416 29.925 63.0476 30.4175 63.1856 30.918C63.4476 31.9152 63.7476 32.9263 64.0736 33.9315C64.6016 35.584 65.1136 37.3068 65.7336 38.9673C65.7496 38.9673 65.7636 38.9673 65.7816 38.9673L65.7676 38.9734Z" fill="#F88A21"/>
<path d="M39.8878 68.4448C40.3838 69.8742 41.2238 71.0783 42.4298 71.9388C42.5418 72.0332 42.6738 72.1036 42.7998 72.18L43.1818 72.4112C43.4498 72.5479 43.7298 72.6645 44.0058 72.7891L44.1038 72.8333C44.7318 73.1168 45.0118 73.8566 44.7298 74.4878C44.5898 74.8034 44.3298 75.0326 44.0318 75.1472C43.8118 75.2316 43.5938 75.3161 43.3818 75.4045C42.9418 75.5875 42.5238 75.7704 42.1538 75.9674C41.7838 76.1664 41.4598 76.3755 41.1698 76.6248C40.5938 77.1193 40.0858 77.8068 39.6578 78.5567C39.2338 79.3106 38.8858 80.1227 38.6778 80.9168C38.4658 81.7028 38.4238 82.4969 38.5838 82.9814L35.6518 83.7192C35.4258 82.7261 35.1858 81.7611 34.8918 80.8444C34.4398 79.4372 33.8478 78.1446 33.0138 77.1073C32.1818 76.0639 31.1158 75.2698 29.9798 74.9623C29.1318 74.7331 28.6318 73.8566 28.8598 73.0042C28.9718 72.5881 29.2378 72.2544 29.5798 72.0493L29.6518 72.0071L30.0398 71.7759L30.2338 71.6613L30.4178 71.5287L30.7898 71.2653L31.1418 70.9678L31.3178 70.819L31.4838 70.6562L31.8178 70.3285L32.1298 69.9747L32.2858 69.7978C32.3358 69.7375 32.3838 69.6711 32.4318 69.6088C33.2218 68.6077 33.8758 67.4538 34.3898 66.2154C34.7198 65.4374 35.1078 64.6554 35.4418 63.8553C35.6118 63.4774 35.7978 63.1718 36.0338 62.9386C36.2598 62.7014 36.5178 62.5305 36.7958 62.4119C37.1998 62.239 37.5658 62.3033 37.8178 62.5848C38.0678 62.8642 38.2158 63.3648 38.1398 64.0181C38.0478 64.8444 37.7878 65.7209 37.4418 66.5109C37.2818 66.9049 37.0898 67.2909 36.9138 67.6789L36.6238 68.2519L36.4778 68.5373L36.3198 68.8188C35.9158 69.5746 35.4398 70.3024 34.9298 71.006C34.4178 71.7116 33.8258 72.371 33.1898 72.9942C32.5398 73.6073 31.8158 74.1541 31.0358 74.6366L30.7518 72.0895C31.3698 72.2303 31.9698 72.4474 32.5338 72.7228C33.6478 73.2575 34.6958 74.0456 35.3498 75.0105C35.7938 75.6498 36.1738 76.3253 36.5058 76.9987C36.8378 77.6722 37.1138 78.3577 37.3598 79.0412C37.8438 80.4122 38.1838 81.7832 38.4458 83.1261L38.4518 83.1603C38.5958 83.8961 38.1198 84.6117 37.3878 84.7565C36.6898 84.8952 36.0098 84.463 35.8218 83.7855C35.6278 83.0799 35.6218 82.4064 35.6938 81.7873C35.7798 81.0615 35.9598 80.3941 36.1798 79.7609C36.4018 79.1276 36.6698 78.5265 36.9758 77.9456C37.2818 77.3666 37.6258 76.8097 38.0258 76.275C38.4278 75.7423 38.8798 75.2276 39.4338 74.7773C40.0178 74.2928 40.6898 73.9149 41.3258 73.6395C41.9678 73.356 42.5738 73.149 43.1658 72.9339L43.1898 75.0226C41.6698 74.4315 40.2398 73.4545 39.1758 72.1699C39.0478 72.0071 38.9278 71.8382 38.8038 71.6714L38.6218 71.4201C38.5658 71.3337 38.5158 71.2452 38.4618 71.1567L38.1478 70.628L37.8818 70.0792L37.7498 69.8058L37.6398 69.5264L37.4218 68.9655L37.2438 68.3966C37.1838 68.2076 37.1258 68.0187 37.0838 67.8257C37.0298 67.6086 36.9798 67.3914 36.9358 67.1763C36.9018 66.9612 36.8698 66.7461 36.8438 66.533C36.8138 66.3199 36.7998 66.1089 36.7938 65.8998C36.7858 65.6907 36.7798 65.4837 36.7838 65.2786C36.8118 64.4584 36.9358 63.6784 37.1898 62.9507C37.4198 62.2812 38.0858 62.2993 38.2838 63.021C38.5698 64.0443 38.8238 65.0896 39.1078 66.0787C39.3338 66.8929 39.5198 67.7151 39.8338 68.4569C39.8478 68.4529 39.8618 68.4509 39.8778 68.4469L39.8878 68.4448Z" fill="#F88A21"/>
<path d="M86.4298 18.6779C86.6098 19.3052 86.8558 19.9062 87.1418 20.4832C87.2178 20.6239 87.2818 20.7747 87.3678 20.9094L87.6138 21.3235C87.7938 21.5848 87.9698 21.8562 88.1738 22.0975C88.4678 22.4754 88.8098 22.8091 89.1698 23.1167L89.1858 23.1308C89.7258 23.5911 89.7938 24.4033 89.3358 24.9481C89.2638 25.0345 89.1758 25.1129 89.0878 25.1753C88.9298 25.2858 88.7718 25.3984 88.6178 25.513C87.6178 26.3493 86.7918 27.4549 86.2178 28.6792C85.9278 29.2883 85.6938 29.9256 85.5378 30.5589C85.5038 30.7157 85.4578 30.8745 85.4378 31.0293C85.4118 31.1841 85.3818 31.3409 85.3718 31.4876L85.3498 31.7088V31.9138L85.3438 32.0163C85.3438 32.0485 85.3498 32.0766 85.3518 32.1048C85.3578 32.1631 85.3618 32.2214 85.3638 32.2797L85.3678 32.35C85.4038 33.1803 84.7638 33.8859 83.9378 33.9221C83.2718 33.9523 82.6858 33.5361 82.4658 32.9411C82.2538 32.3641 82.0738 31.7892 81.9218 31.2504C81.7678 30.7137 81.6298 30.189 81.4758 29.7226C81.4398 29.604 81.4018 29.4894 81.3618 29.3828C81.3218 29.2743 81.2858 29.1617 81.2438 29.0572C81.1558 28.8561 81.0758 28.645 80.9758 28.4701C80.8878 28.2772 80.7738 28.1224 80.6738 27.9515C80.6178 27.8731 80.5558 27.8027 80.4998 27.7263L80.4138 27.6138L80.3138 27.5153C79.8058 26.9785 79.1118 26.5724 78.2558 26.297C77.4218 26.0296 76.9618 25.133 77.2278 24.2947C77.3498 23.9088 77.6058 23.6032 77.9258 23.4102L78.0038 23.364L78.3958 23.1288C78.4618 23.0886 78.5278 23.0524 78.5918 23.0122L78.7738 22.8775C78.8938 22.787 79.0218 22.7046 79.1398 22.6101L79.4798 22.3146C79.9138 21.8985 80.3278 21.4542 80.6538 20.9275C80.9878 20.4108 81.2838 19.854 81.5078 19.2509C81.6358 18.9594 81.7178 18.6397 81.8238 18.3322L81.9478 17.8537L82.0098 17.6145L82.0578 17.3692C82.2098 16.6958 82.3958 15.9982 82.5718 15.2986C82.6078 15.1297 82.6618 14.977 82.7278 14.8362C82.7978 14.6835 82.8678 14.6272 82.9738 14.3216C83.0818 14.0824 83.2218 13.8954 83.3598 13.7848C83.4978 13.6723 83.6258 13.628 83.7298 13.628C84.0318 13.6381 84.1038 14.0542 84.4018 14.392C84.5418 14.5608 84.7578 14.6935 84.9498 14.6995C85.0438 14.7056 85.1198 14.6855 85.1658 14.6674L85.1738 14.6633C85.1738 14.6633 85.1798 14.6633 85.1798 14.6734L85.1918 14.7196C85.1978 14.7498 85.2058 14.782 85.2118 14.8141C85.2238 14.8785 85.2338 14.9448 85.2418 15.0152C85.2598 15.19 85.2718 15.371 85.2778 15.5519C85.2778 15.7348 85.2678 15.9198 85.2538 16.1047C85.2338 16.4746 85.1618 16.8465 85.0878 17.2064C84.8978 18.0306 84.6898 18.8528 84.3918 19.661C84.0998 20.4671 83.7638 21.2672 83.3178 22.0251C82.4598 23.5509 81.2138 24.928 79.7058 25.9231C79.6198 25.9814 79.5358 26.0417 79.4478 26.1L79.2118 23.3559C79.6478 23.4886 80.0958 23.5891 80.5298 23.8042C80.7478 23.9027 80.9618 24.0012 81.1638 24.144C81.2658 24.2103 81.3638 24.2787 81.4618 24.351C81.5598 24.4194 81.6538 24.4938 81.7398 24.5822C82.3318 25.1129 82.8318 25.7562 83.2298 26.4136C83.6318 27.077 83.9058 27.7665 84.1218 28.4199C84.3398 29.0732 84.5078 29.7105 84.6618 30.3036C84.8178 30.8966 84.9698 31.4575 85.1318 31.9842L82.5438 32.5732C82.5378 32.3119 82.5218 32.0324 82.5518 31.7972C82.5978 31.17 82.7238 30.6111 82.8738 30.0623L82.9898 29.6562L83.1258 29.2602C83.2118 28.9928 83.3218 28.7415 83.4238 28.4842C83.8498 27.465 84.4058 26.5101 85.0898 25.6437C85.8458 24.6968 86.7498 23.8444 87.8058 23.1911L87.7338 25.0084C86.6738 24.1259 85.7938 23.0604 85.1478 21.8944L84.9058 21.4562L84.6898 21.0079L84.5818 20.7847L84.4878 20.5556L84.2998 20.0972C84.0738 19.48 83.8698 18.8569 83.7238 18.2216C83.3678 16.7621 83.4458 15.2966 84.0158 14.0985C84.0918 13.9376 84.2038 13.8271 84.3258 13.7748C84.3478 13.7647 84.3578 13.7406 84.3478 13.7185C84.3478 13.7145 84.3438 13.7105 84.3398 13.7064L84.1558 13.5034C84.0798 13.419 83.9418 13.3747 83.8578 13.3587C83.7698 13.3406 83.7178 13.3265 83.6978 13.2923C83.6798 13.2602 83.6898 13.2039 83.7898 13.1375C83.8398 13.1054 83.9178 13.0712 84.0218 13.0591C84.1238 13.045 84.2478 13.0591 84.3578 13.0933L84.7818 13.7748C84.9258 13.8431 85.0478 13.9839 85.1058 14.1929C85.3398 15.0272 85.5618 15.8695 85.8058 16.6837C86.0038 17.3511 86.1478 18.0447 86.3838 18.698C86.3978 18.694 86.4118 18.692 86.4278 18.688L86.4298 18.6779Z" fill="#F88A21"/>
<path d="M82.2857 79.5737C82.3237 79.7385 82.3617 79.9094 82.4037 80.0662C82.4237 80.1486 82.4457 80.223 82.4657 80.2913C82.4857 80.3617 82.5057 80.4341 82.5317 80.5024C82.6257 80.7819 82.7437 81.0593 82.8857 81.3146C83.1697 81.8292 83.5417 82.2836 83.9737 82.6112C84.2137 82.7902 84.4717 82.9329 84.7457 83.0234L84.8337 83.0535C85.4877 83.2706 85.8437 83.9803 85.6257 84.6376C85.5237 84.9472 85.3097 85.1925 85.0477 85.3392C84.7677 85.496 84.5037 85.675 84.2657 85.884C83.7717 86.3203 83.3597 86.851 82.9717 87.4682C82.7777 87.7757 82.5877 88.1054 82.3957 88.4492L82.1017 88.9759C82.0117 89.1407 81.9357 89.2815 81.8617 89.4403C81.5677 90.0574 81.3537 90.7007 81.2637 91.332C81.1697 91.9632 81.1937 92.5723 81.3377 93.1252L78.4037 93.7644C78.1737 92.7231 77.9277 91.7159 77.6077 90.7731C77.2257 89.6413 76.7397 88.606 76.0837 87.7416C75.4297 86.8731 74.6217 86.1775 73.7317 85.7936C72.9257 85.4438 72.5517 84.5029 72.8997 83.6928C73.0537 83.3329 73.3237 83.0595 73.6477 82.8967L73.7237 82.8585L74.0857 82.6756L74.2677 82.5871L74.4397 82.4806L74.7837 82.2675L75.1077 82.0222L75.2717 81.9016L75.4237 81.7629L75.7277 81.4895L76.0077 81.1859C76.0537 81.1357 76.1037 81.0874 76.1477 81.0352L76.2757 80.8703C76.3617 80.7598 76.4497 80.6532 76.5337 80.5406L76.7697 80.1888C76.8517 80.0742 76.9217 79.9496 76.9917 79.825C77.0617 79.7003 77.1357 79.5777 77.2017 79.451C77.3217 79.1877 77.4617 78.9364 77.5617 78.659C77.6157 78.5223 77.6717 78.3896 77.7237 78.2509L77.8617 77.8307C78.0657 77.1613 78.3377 76.4878 78.5317 75.7883C78.6317 75.4586 78.7657 75.1731 78.9577 74.962C79.0337 75.0022 79.1857 75.0947 79.3817 75.0786C79.5777 75.0666 79.7577 74.9278 79.8477 74.7529C80.1037 74.2242 79.8877 73.79 80.1817 73.7377C80.2557 73.7297 80.3737 73.7538 80.5317 73.8684C80.6877 73.979 80.8737 74.2021 80.9817 74.4816C81.0377 74.6203 81.0757 74.765 81.1017 74.9057C81.1117 74.9701 81.1217 75.0344 81.1317 75.1007C81.1397 75.1309 81.1477 75.161 81.1557 75.1932C81.1857 75.3199 81.2057 75.4566 81.2157 75.6053C81.2497 75.9812 81.2097 76.3733 81.1657 76.7653C81.1357 76.9603 81.0937 77.1553 81.0517 77.3483C81.0297 77.4448 81.0077 77.5412 80.9837 77.6357C80.9537 77.7302 80.9257 77.8247 80.8977 77.9172C80.4197 79.4752 79.7217 80.9749 78.7437 82.3238C78.2537 82.9972 77.6777 83.6144 77.0457 84.1793C76.4037 84.7382 75.6857 85.2066 74.9257 85.6146L74.9177 83.0274C75.2457 83.156 75.5737 83.2927 75.8837 83.4576C76.8477 83.9521 77.7677 84.6497 78.3277 85.5061C79.9597 87.9908 80.7457 90.6686 81.1897 93.2056L81.2037 93.282C81.3317 94.0137 80.8457 94.7133 80.1157 94.842C79.3957 94.9686 78.7097 94.4922 78.5677 93.7765C78.5057 93.4649 78.4617 93.1493 78.4477 92.8377C78.3837 91.5571 78.6417 90.3328 79.0777 89.2312C79.2957 88.6804 79.5637 88.1476 79.8657 87.6551C80.1317 87.2209 80.4057 86.7666 80.7157 86.3102C81.1017 85.7413 81.5437 85.1623 82.0717 84.6396C82.5937 84.1129 83.2057 83.6626 83.8437 83.3008L84.1057 85.3051C83.3777 85.0759 82.7177 84.6939 82.1717 84.2175C81.6217 83.743 81.1777 83.1842 80.8237 82.5911C80.6437 82.2936 80.4937 81.984 80.3557 81.6684C80.2257 81.3548 80.1077 81.0171 80.0237 80.7115C79.8457 80.0903 79.7157 79.4832 79.6017 78.8721C79.4637 78.1222 79.4037 77.3844 79.4497 76.6668C79.4957 75.9511 79.6417 75.2515 79.9397 74.6323C80.0077 74.4976 80.0977 74.3991 80.1977 74.3428L80.1937 74.375C80.2137 74.3991 80.2137 74.4574 80.1837 74.5097C80.1537 74.564 80.1017 74.6042 80.0637 74.6303C79.9837 74.6826 79.9417 74.7127 79.9357 74.763C79.9357 74.8072 79.9557 74.8856 80.1237 74.9178C80.2057 74.9319 80.3437 74.9178 80.4817 74.8273C80.6197 74.7409 80.7177 74.5901 80.7557 74.4795L80.7677 74.367C80.8877 74.4434 80.9777 74.568 81.0257 74.7509C81.2537 75.5973 81.4937 76.4838 81.7317 77.3663C81.9277 78.0961 82.0377 78.868 82.2377 79.5797C82.2517 79.5777 82.2657 79.5757 82.2817 79.5737H82.2857Z" fill="#F88A21"/>
</svg>
