<svg width="148" height="99" viewBox="0 0 148 99" fill="none" xmlns="http://www.w3.org/2000/svg">
<mask id="path-1-inside-1_387_2807" fill="white">
<path d="M52.7701 62.4522C51.3624 61.3409 49.6532 61.4034 48.0074 61.4314C45.7002 61.4616 43.3724 61.65 41.0617 61.757C40.779 61.7667 40.4773 61.8081 40.2386 61.727C39.0315 61.3265 37.9484 61.6759 36.7679 62.2226C35.9521 62.6054 34.9603 62.6967 34.03 62.7919C33.2593 62.8696 32.5946 63.0366 31.9058 63.4384C30.1791 64.4509 28.2526 65.0164 26.2944 65.3161C22.7777 65.8527 19.6494 67.4253 16.4433 68.7732C15.7599 69.0599 15.152 69.5218 14.5248 69.9274C14.0567 70.2277 13.6449 70.647 13.1284 70.8508C10.0317 72.1231 7.49145 74.1342 4.77726 75.9034C4.4723 76.1095 4.17511 76.3381 3.88181 76.578C2.33467 77.8052 2.05984 77.8373 0.677199 76.755C0.426487 76.5523 0.231324 76.2925 -0.000277841 76.058C1.18875 73.1425 3.82226 71.4012 6.63153 69.8634C8.9342 68.6014 11.2309 67.2786 13.6749 66.295C16.0557 65.3458 18.3438 64.3029 20.5329 63.0173C21.2217 62.6155 22.1765 62.3734 22.961 62.3789C24.3358 62.3943 25.4876 61.8953 26.7279 61.3909C28.1121 60.8241 29.6126 60.5064 31.0746 60.1645C32.8132 59.752 34.5751 59.4069 36.3331 59.0506C37.3437 58.8396 38.36 58.6014 39.3826 58.512C41.5258 58.312 43.6615 58.1774 45.7972 58.0429C48.7019 57.869 51.5335 58.2236 54.2675 58.6876C55.9779 58.977 57.1129 58.0811 58.5112 57.6856C58.7033 57.6318 58.8329 57.3101 58.9917 57.1167C59.6216 56.3704 60.2341 55.6174 60.8926 54.8234C61.7078 54.8309 62.4213 54.8485 63.175 54.8521C63.3512 54.6653 63.6197 54.4844 63.7093 54.2646C64.1419 53.209 64.8962 52.344 65.8317 51.5675C66.3914 51.0971 66.8836 50.5619 67.3623 50.0314C69.1318 48.0981 71.0597 46.3617 73.512 45.0102C75.9548 43.6747 78.2042 42.041 80.4691 40.4523C83.5222 38.3142 86.7879 36.4424 90.3226 35.0438C90.7584 34.868 91.2154 34.7099 91.6474 34.5228C95.8956 32.6635 100.206 30.984 104.703 29.8441C105.341 29.6865 105.98 29.4905 106.604 29.2495C109.459 28.1489 112.385 27.4266 115.4 27.265C116.774 27.1924 117.94 26.7767 118.774 25.6199C119.382 24.7677 120.146 23.9749 120.841 23.1557C121.13 22.8166 121.369 22.4194 121.73 22.1563C122.896 21.3503 123.946 20.4711 124.449 19.2275C124.484 19.1527 124.549 19.0798 124.618 19.0182C126.061 17.7515 127.44 16.4313 128.976 15.2583C129.693 14.7209 130.658 14.4629 130.835 13.4956C130.874 13.3057 131.185 13.0724 131.419 12.9663C132.287 12.6032 133.168 12.2355 134.071 11.9737C134.344 11.892 134.842 12.0719 134.987 12.2734C135.132 12.475 135.067 13.0261 134.881 13.1408C133.432 14.0444 132.82 15.3636 132.09 16.6479C131.754 17.2424 131.249 17.7822 130.795 18.3417C129.206 20.2755 127.6 22.2026 126.011 24.1363C125.895 24.2773 125.795 24.425 125.709 24.568C125.218 25.3671 125.482 26.0434 126.388 26.2711C127.674 26.5941 128.967 26.9397 130.278 27.2038C132.104 27.5665 133.078 28.8153 134.016 29.9631C134.818 30.9317 134.496 32.2638 133.995 33.4691C132.948 35.9703 131.095 38.0082 128.852 39.8786C127.755 40.7989 126.515 41.3913 125.169 41.8946C123.545 42.5067 122.194 42.2565 121.156 41.2564C119.059 39.2384 117.521 36.9259 117.322 33.9997C117.302 33.7676 117.349 33.5122 117.325 33.2688C117.179 32.0611 116.587 31.6114 115.204 31.6616C114.922 31.6712 114.635 31.6696 114.372 31.7355C111.813 32.4315 109.179 32.9524 106.745 33.9201C104.719 34.7213 102.623 35.2322 100.621 36.0128C100.01 36.2492 99.3416 36.4048 98.7504 36.6974C96.3781 37.845 94.0387 39.0441 91.6703 40.2029C91.0792 40.4955 90.459 40.7477 89.8368 40.9503C88.3695 41.4074 87.0588 42.0998 85.8393 43.0123C85.2679 43.449 84.577 43.8012 83.884 44.1038C82.9164 44.5265 82.0646 45.0224 81.3251 45.7564C80.2945 46.7798 78.7366 47.1927 77.7158 48.2882C75.7298 50.4222 72.8636 51.6651 70.704 53.6452C68.8242 55.3902 66.8132 57.0169 64.9257 58.7393C63.8621 59.7112 64.0482 60.641 65.4318 60.9427C68.888 61.7106 71.8855 63.2412 74.9382 64.6269C78.0949 66.0521 80.8196 68.1427 82.5639 70.8366C84.3527 73.6157 84.5646 76.8395 82.829 80.1328C82.1817 81.3508 81.3476 82.5076 80.6175 83.704C80.0595 84.6143 79.2988 85.3303 78.2877 85.9317C77.4397 86.4389 76.7331 87.2244 76.0782 87.9417C75.339 88.7636 74.5475 89.4778 73.5092 90.0004C72.8413 90.3321 72.1833 90.7359 71.5985 91.1772C70.6935 91.8677 69.7302 92.3896 68.5968 92.6809C67.5441 92.9442 66.6597 93.4766 65.9934 94.2482C64.1227 96.3675 61.6111 97.2864 58.8171 97.7367C57.1645 98.0062 55.477 97.6963 53.8512 98.4347C52.1075 98.0058 50.2112 98.3973 48.4261 98.1966C47.8298 98.126 47.2958 97.757 46.8216 97.4302C45.3682 96.4478 44.1313 95.2648 42.49 94.4355C41.1242 93.7501 40.673 92.3583 40.4393 91.0296C40.1074 89.1561 39.7851 87.2666 40.3046 85.2874C40.3899 84.9684 40.3617 84.6258 40.4991 84.3266C41.6962 81.5216 42.8587 78.7034 44.1386 75.9201C44.5984 74.9431 45.0058 73.8583 46.1994 73.219C46.4163 73.1063 46.5614 72.8296 46.6683 72.6164C47.6912 70.5261 49.103 68.6031 50.4937 66.6624C51.3929 65.4328 52.3359 64.1125 52.7701 62.4522ZM58.9704 95.0032C59.4013 94.5521 59.9374 93.9263 60.8703 93.4904C62.0239 92.9531 63.2966 92.4122 64.1119 91.3752C64.309 91.1183 64.7215 90.8749 65.0501 90.8242C66.4777 90.557 67.357 89.6615 68.319 88.7877C69.0645 88.1146 69.945 87.571 70.7541 86.9514C71.339 86.51 71.916 86.0462 72.4796 85.587C74.2125 84.1572 75.2131 82.2633 76.7129 80.7253C78.2683 79.1303 78.8868 77.3937 79.3355 75.5144C79.7765 73.6127 79.3628 71.9813 78.0503 70.6231C77.3226 69.868 76.5143 69.1408 75.6065 68.5612C74.1938 67.6529 72.7216 66.7903 71.1729 66.0549C69.6282 65.3306 67.9801 64.7428 66.3225 64.1709C65.4157 63.8553 64.4172 63.7098 63.4609 63.512C62.6835 63.3529 61.8908 63.2369 60.9674 63.0907C59.3639 64.6771 57.683 66.1268 56.3065 67.7606C53.4656 71.1215 51.4143 74.8511 49.0529 78.4237C48.3837 79.448 47.6491 80.4571 47.0626 81.5031C45.8307 83.7287 45.2644 86.0513 44.9867 88.4251C44.7281 90.7672 45.5791 92.6625 47.2386 94.2406C48.0663 95.024 49.042 95.7562 50.4494 95.7351C51.8395 95.7074 53.2349 95.5647 54.6381 95.4443C56.0105 95.3221 57.3846 95.1615 58.9704 95.0032ZM122.04 35.8038C122.221 36.4584 122.858 37.0814 123.446 36.9536C123.936 36.8471 124.471 36.5235 124.818 36.1771C125.718 35.2994 126.534 34.3504 127.374 33.4304C127.681 33.0979 128.005 32.772 128.242 32.4132C128.783 31.5842 128.462 30.7009 127.454 30.5713C126.306 30.4274 125.108 30.4012 123.92 30.4471C123.253 30.4765 122.721 30.8992 122.455 31.5201C121.858 32.9722 121.792 34.3918 122.04 35.8038Z"/>
<path d="M118.834 6.47086C119.379 6.30739 119.813 6.16989 120.241 6.0595C123.92 5.1648 127.537 4.09024 131.091 2.74788C131.702 2.51156 132.349 2.33802 132.994 2.20286C133.921 2.00844 134.833 1.81867 135.623 1.23085C135.838 1.0685 136.116 0.959673 136.389 0.877938C137.616 0.466147 138.844 -0.335959 140.157 0.153748C141.786 0.773339 143.269 1.49368 143.979 3.11072C145.022 5.51847 145.712 8.03585 146.291 10.5792C146.605 11.9679 146.88 13.3706 147.181 14.7639C147.518 16.3464 147.408 17.9447 146.743 19.5464C146.673 19.7344 146.345 19.9611 146.131 19.9971C145.914 20.0219 145.546 19.8722 145.492 19.7148C144.887 17.923 144.212 16.1432 143.786 14.3022C143.233 11.9639 142.494 9.74025 141.02 7.78357C140.359 6.91724 139.698 6.13891 138.193 6.57159C137.442 6.79355 137.044 5.94934 136.144 6.26081C134.271 6.89574 132.321 7.30591 130.453 7.95208C127.956 8.82798 125.547 9.9128 122.911 10.3841C120.617 10.7999 119.842 10.4762 119.311 8.63396C119.103 7.98863 118.998 7.29486 118.834 6.47086Z"/>
</mask>
<path d="M52.7701 62.4522C51.3624 61.3409 49.6532 61.4034 48.0074 61.4314C45.7002 61.4616 43.3724 61.65 41.0617 61.757C40.779 61.7667 40.4773 61.8081 40.2386 61.727C39.0315 61.3265 37.9484 61.6759 36.7679 62.2226C35.9521 62.6054 34.9603 62.6967 34.03 62.7919C33.2593 62.8696 32.5946 63.0366 31.9058 63.4384C30.1791 64.4509 28.2526 65.0164 26.2944 65.3161C22.7777 65.8527 19.6494 67.4253 16.4433 68.7732C15.7599 69.0599 15.152 69.5218 14.5248 69.9274C14.0567 70.2277 13.6449 70.647 13.1284 70.8508C10.0317 72.1231 7.49145 74.1342 4.77726 75.9034C4.4723 76.1095 4.17511 76.3381 3.88181 76.578C2.33467 77.8052 2.05984 77.8373 0.677199 76.755C0.426487 76.5523 0.231324 76.2925 -0.000277841 76.058C1.18875 73.1425 3.82226 71.4012 6.63153 69.8634C8.9342 68.6014 11.2309 67.2786 13.6749 66.295C16.0557 65.3458 18.3438 64.3029 20.5329 63.0173C21.2217 62.6155 22.1765 62.3734 22.961 62.3789C24.3358 62.3943 25.4876 61.8953 26.7279 61.3909C28.1121 60.8241 29.6126 60.5064 31.0746 60.1645C32.8132 59.752 34.5751 59.4069 36.3331 59.0506C37.3437 58.8396 38.36 58.6014 39.3826 58.512C41.5258 58.312 43.6615 58.1774 45.7972 58.0429C48.7019 57.869 51.5335 58.2236 54.2675 58.6876C55.9779 58.977 57.1129 58.0811 58.5112 57.6856C58.7033 57.6318 58.8329 57.3101 58.9917 57.1167C59.6216 56.3704 60.2341 55.6174 60.8926 54.8234C61.7078 54.8309 62.4213 54.8485 63.175 54.8521C63.3512 54.6653 63.6197 54.4844 63.7093 54.2646C64.1419 53.209 64.8962 52.344 65.8317 51.5675C66.3914 51.0971 66.8836 50.5619 67.3623 50.0314C69.1318 48.0981 71.0597 46.3617 73.512 45.0102C75.9548 43.6747 78.2042 42.041 80.4691 40.4523C83.5222 38.3142 86.7879 36.4424 90.3226 35.0438C90.7584 34.868 91.2154 34.7099 91.6474 34.5228C95.8956 32.6635 100.206 30.984 104.703 29.8441C105.341 29.6865 105.98 29.4905 106.604 29.2495C109.459 28.1489 112.385 27.4266 115.4 27.265C116.774 27.1924 117.94 26.7767 118.774 25.6199C119.382 24.7677 120.146 23.9749 120.841 23.1557C121.13 22.8166 121.369 22.4194 121.73 22.1563C122.896 21.3503 123.946 20.4711 124.449 19.2275C124.484 19.1527 124.549 19.0798 124.618 19.0182C126.061 17.7515 127.44 16.4313 128.976 15.2583C129.693 14.7209 130.658 14.4629 130.835 13.4956C130.874 13.3057 131.185 13.0724 131.419 12.9663C132.287 12.6032 133.168 12.2355 134.071 11.9737C134.344 11.892 134.842 12.0719 134.987 12.2734C135.132 12.475 135.067 13.0261 134.881 13.1408C133.432 14.0444 132.82 15.3636 132.09 16.6479C131.754 17.2424 131.249 17.7822 130.795 18.3417C129.206 20.2755 127.6 22.2026 126.011 24.1363C125.895 24.2773 125.795 24.425 125.709 24.568C125.218 25.3671 125.482 26.0434 126.388 26.2711C127.674 26.5941 128.967 26.9397 130.278 27.2038C132.104 27.5665 133.078 28.8153 134.016 29.9631C134.818 30.9317 134.496 32.2638 133.995 33.4691C132.948 35.9703 131.095 38.0082 128.852 39.8786C127.755 40.7989 126.515 41.3913 125.169 41.8946C123.545 42.5067 122.194 42.2565 121.156 41.2564C119.059 39.2384 117.521 36.9259 117.322 33.9997C117.302 33.7676 117.349 33.5122 117.325 33.2688C117.179 32.0611 116.587 31.6114 115.204 31.6616C114.922 31.6712 114.635 31.6696 114.372 31.7355C111.813 32.4315 109.179 32.9524 106.745 33.9201C104.719 34.7213 102.623 35.2322 100.621 36.0128C100.01 36.2492 99.3416 36.4048 98.7504 36.6974C96.3781 37.845 94.0387 39.0441 91.6703 40.2029C91.0792 40.4955 90.459 40.7477 89.8368 40.9503C88.3695 41.4074 87.0588 42.0998 85.8393 43.0123C85.2679 43.449 84.577 43.8012 83.884 44.1038C82.9164 44.5265 82.0646 45.0224 81.3251 45.7564C80.2945 46.7798 78.7366 47.1927 77.7158 48.2882C75.7298 50.4222 72.8636 51.6651 70.704 53.6452C68.8242 55.3902 66.8132 57.0169 64.9257 58.7393C63.8621 59.7112 64.0482 60.641 65.4318 60.9427C68.888 61.7106 71.8855 63.2412 74.9382 64.6269C78.0949 66.0521 80.8196 68.1427 82.5639 70.8366C84.3527 73.6157 84.5646 76.8395 82.829 80.1328C82.1817 81.3508 81.3476 82.5076 80.6175 83.704C80.0595 84.6143 79.2988 85.3303 78.2877 85.9317C77.4397 86.4389 76.7331 87.2244 76.0782 87.9417C75.339 88.7636 74.5475 89.4778 73.5092 90.0004C72.8413 90.3321 72.1833 90.7359 71.5985 91.1772C70.6935 91.8677 69.7302 92.3896 68.5968 92.6809C67.5441 92.9442 66.6597 93.4766 65.9934 94.2482C64.1227 96.3675 61.6111 97.2864 58.8171 97.7367C57.1645 98.0062 55.477 97.6963 53.8512 98.4347C52.1075 98.0058 50.2112 98.3973 48.4261 98.1966C47.8298 98.126 47.2958 97.757 46.8216 97.4302C45.3682 96.4478 44.1313 95.2648 42.49 94.4355C41.1242 93.7501 40.673 92.3583 40.4393 91.0296C40.1074 89.1561 39.7851 87.2666 40.3046 85.2874C40.3899 84.9684 40.3617 84.6258 40.4991 84.3266C41.6962 81.5216 42.8587 78.7034 44.1386 75.9201C44.5984 74.9431 45.0058 73.8583 46.1994 73.219C46.4163 73.1063 46.5614 72.8296 46.6683 72.6164C47.6912 70.5261 49.103 68.6031 50.4937 66.6624C51.3929 65.4328 52.3359 64.1125 52.7701 62.4522ZM58.9704 95.0032C59.4013 94.5521 59.9374 93.9263 60.8703 93.4904C62.0239 92.9531 63.2966 92.4122 64.1119 91.3752C64.309 91.1183 64.7215 90.8749 65.0501 90.8242C66.4777 90.557 67.357 89.6615 68.319 88.7877C69.0645 88.1146 69.945 87.571 70.7541 86.9514C71.339 86.51 71.916 86.0462 72.4796 85.587C74.2125 84.1572 75.2131 82.2633 76.7129 80.7253C78.2683 79.1303 78.8868 77.3937 79.3355 75.5144C79.7765 73.6127 79.3628 71.9813 78.0503 70.6231C77.3226 69.868 76.5143 69.1408 75.6065 68.5612C74.1938 67.6529 72.7216 66.7903 71.1729 66.0549C69.6282 65.3306 67.9801 64.7428 66.3225 64.1709C65.4157 63.8553 64.4172 63.7098 63.4609 63.512C62.6835 63.3529 61.8908 63.2369 60.9674 63.0907C59.3639 64.6771 57.683 66.1268 56.3065 67.7606C53.4656 71.1215 51.4143 74.8511 49.0529 78.4237C48.3837 79.448 47.6491 80.4571 47.0626 81.5031C45.8307 83.7287 45.2644 86.0513 44.9867 88.4251C44.7281 90.7672 45.5791 92.6625 47.2386 94.2406C48.0663 95.024 49.042 95.7562 50.4494 95.7351C51.8395 95.7074 53.2349 95.5647 54.6381 95.4443C56.0105 95.3221 57.3846 95.1615 58.9704 95.0032ZM122.04 35.8038C122.221 36.4584 122.858 37.0814 123.446 36.9536C123.936 36.8471 124.471 36.5235 124.818 36.1771C125.718 35.2994 126.534 34.3504 127.374 33.4304C127.681 33.0979 128.005 32.772 128.242 32.4132C128.783 31.5842 128.462 30.7009 127.454 30.5713C126.306 30.4274 125.108 30.4012 123.92 30.4471C123.253 30.4765 122.721 30.8992 122.455 31.5201C121.858 32.9722 121.792 34.3918 122.04 35.8038Z" fill="#E9DBA9"/>
<path d="M118.834 6.47086C119.379 6.30739 119.813 6.16989 120.241 6.0595C123.92 5.1648 127.537 4.09024 131.091 2.74788C131.702 2.51156 132.349 2.33802 132.994 2.20286C133.921 2.00844 134.833 1.81867 135.623 1.23085C135.838 1.0685 136.116 0.959673 136.389 0.877938C137.616 0.466147 138.844 -0.335959 140.157 0.153748C141.786 0.773339 143.269 1.49368 143.979 3.11072C145.022 5.51847 145.712 8.03585 146.291 10.5792C146.605 11.9679 146.88 13.3706 147.181 14.7639C147.518 16.3464 147.408 17.9447 146.743 19.5464C146.673 19.7344 146.345 19.9611 146.131 19.9971C145.914 20.0219 145.546 19.8722 145.492 19.7148C144.887 17.923 144.212 16.1432 143.786 14.3022C143.233 11.9639 142.494 9.74025 141.02 7.78357C140.359 6.91724 139.698 6.13891 138.193 6.57159C137.442 6.79355 137.044 5.94934 136.144 6.26081C134.271 6.89574 132.321 7.30591 130.453 7.95208C127.956 8.82798 125.547 9.9128 122.911 10.3841C120.617 10.7999 119.842 10.4762 119.311 8.63396C119.103 7.98863 118.998 7.29486 118.834 6.47086Z" fill="#E9DBA9"/>
<path d="M52.7701 62.4522C51.3624 61.3409 49.6532 61.4034 48.0074 61.4314C45.7002 61.4616 43.3724 61.65 41.0617 61.757C40.779 61.7667 40.4773 61.8081 40.2386 61.727C39.0315 61.3265 37.9484 61.6759 36.7679 62.2226C35.9521 62.6054 34.9603 62.6967 34.03 62.7919C33.2593 62.8696 32.5946 63.0366 31.9058 63.4384C30.1791 64.4509 28.2526 65.0164 26.2944 65.3161C22.7777 65.8527 19.6494 67.4253 16.4433 68.7732C15.7599 69.0599 15.152 69.5218 14.5248 69.9274C14.0567 70.2277 13.6449 70.647 13.1284 70.8508C10.0317 72.1231 7.49145 74.1342 4.77726 75.9034C4.4723 76.1095 4.17511 76.3381 3.88181 76.578C2.33467 77.8052 2.05984 77.8373 0.677199 76.755C0.426487 76.5523 0.231324 76.2925 -0.000277841 76.058C1.18875 73.1425 3.82226 71.4012 6.63153 69.8634C8.9342 68.6014 11.2309 67.2786 13.6749 66.295C16.0557 65.3458 18.3438 64.3029 20.5329 63.0173C21.2217 62.6155 22.1765 62.3734 22.961 62.3789C24.3358 62.3943 25.4876 61.8953 26.7279 61.3909C28.1121 60.8241 29.6126 60.5064 31.0746 60.1645C32.8132 59.752 34.5751 59.4069 36.3331 59.0506C37.3437 58.8396 38.36 58.6014 39.3826 58.512C41.5258 58.312 43.6615 58.1774 45.7972 58.0429C48.7019 57.869 51.5335 58.2236 54.2675 58.6876C55.9779 58.977 57.1129 58.0811 58.5112 57.6856C58.7033 57.6318 58.8329 57.3101 58.9917 57.1167C59.6216 56.3704 60.2341 55.6174 60.8926 54.8234C61.7078 54.8309 62.4213 54.8485 63.175 54.8521C63.3512 54.6653 63.6197 54.4844 63.7093 54.2646C64.1419 53.209 64.8962 52.344 65.8317 51.5675C66.3914 51.0971 66.8836 50.5619 67.3623 50.0314C69.1318 48.0981 71.0597 46.3617 73.512 45.0102C75.9548 43.6747 78.2042 42.041 80.4691 40.4523C83.5222 38.3142 86.7879 36.4424 90.3226 35.0438C90.7584 34.868 91.2154 34.7099 91.6474 34.5228C95.8956 32.6635 100.206 30.984 104.703 29.8441C105.341 29.6865 105.98 29.4905 106.604 29.2495C109.459 28.1489 112.385 27.4266 115.4 27.265C116.774 27.1924 117.94 26.7767 118.774 25.6199C119.382 24.7677 120.146 23.9749 120.841 23.1557C121.13 22.8166 121.369 22.4194 121.73 22.1563C122.896 21.3503 123.946 20.4711 124.449 19.2275C124.484 19.1527 124.549 19.0798 124.618 19.0182C126.061 17.7515 127.44 16.4313 128.976 15.2583C129.693 14.7209 130.658 14.4629 130.835 13.4956C130.874 13.3057 131.185 13.0724 131.419 12.9663C132.287 12.6032 133.168 12.2355 134.071 11.9737C134.344 11.892 134.842 12.0719 134.987 12.2734C135.132 12.475 135.067 13.0261 134.881 13.1408C133.432 14.0444 132.82 15.3636 132.09 16.6479C131.754 17.2424 131.249 17.7822 130.795 18.3417C129.206 20.2755 127.6 22.2026 126.011 24.1363C125.895 24.2773 125.795 24.425 125.709 24.568C125.218 25.3671 125.482 26.0434 126.388 26.2711C127.674 26.5941 128.967 26.9397 130.278 27.2038C132.104 27.5665 133.078 28.8153 134.016 29.9631C134.818 30.9317 134.496 32.2638 133.995 33.4691C132.948 35.9703 131.095 38.0082 128.852 39.8786C127.755 40.7989 126.515 41.3913 125.169 41.8946C123.545 42.5067 122.194 42.2565 121.156 41.2564C119.059 39.2384 117.521 36.9259 117.322 33.9997C117.302 33.7676 117.349 33.5122 117.325 33.2688C117.179 32.0611 116.587 31.6114 115.204 31.6616C114.922 31.6712 114.635 31.6696 114.372 31.7355C111.813 32.4315 109.179 32.9524 106.745 33.9201C104.719 34.7213 102.623 35.2322 100.621 36.0128C100.01 36.2492 99.3416 36.4048 98.7504 36.6974C96.3781 37.845 94.0387 39.0441 91.6703 40.2029C91.0792 40.4955 90.459 40.7477 89.8368 40.9503C88.3695 41.4074 87.0588 42.0998 85.8393 43.0123C85.2679 43.449 84.577 43.8012 83.884 44.1038C82.9164 44.5265 82.0646 45.0224 81.3251 45.7564C80.2945 46.7798 78.7366 47.1927 77.7158 48.2882C75.7298 50.4222 72.8636 51.6651 70.704 53.6452C68.8242 55.3902 66.8132 57.0169 64.9257 58.7393C63.8621 59.7112 64.0482 60.641 65.4318 60.9427C68.888 61.7106 71.8855 63.2412 74.9382 64.6269C78.0949 66.0521 80.8196 68.1427 82.5639 70.8366C84.3527 73.6157 84.5646 76.8395 82.829 80.1328C82.1817 81.3508 81.3476 82.5076 80.6175 83.704C80.0595 84.6143 79.2988 85.3303 78.2877 85.9317C77.4397 86.4389 76.7331 87.2244 76.0782 87.9417C75.339 88.7636 74.5475 89.4778 73.5092 90.0004C72.8413 90.3321 72.1833 90.7359 71.5985 91.1772C70.6935 91.8677 69.7302 92.3896 68.5968 92.6809C67.5441 92.9442 66.6597 93.4766 65.9934 94.2482C64.1227 96.3675 61.6111 97.2864 58.8171 97.7367C57.1645 98.0062 55.477 97.6963 53.8512 98.4347C52.1075 98.0058 50.2112 98.3973 48.4261 98.1966C47.8298 98.126 47.2958 97.757 46.8216 97.4302C45.3682 96.4478 44.1313 95.2648 42.49 94.4355C41.1242 93.7501 40.673 92.3583 40.4393 91.0296C40.1074 89.1561 39.7851 87.2666 40.3046 85.2874C40.3899 84.9684 40.3617 84.6258 40.4991 84.3266C41.6962 81.5216 42.8587 78.7034 44.1386 75.9201C44.5984 74.9431 45.0058 73.8583 46.1994 73.219C46.4163 73.1063 46.5614 72.8296 46.6683 72.6164C47.6912 70.5261 49.103 68.6031 50.4937 66.6624C51.3929 65.4328 52.3359 64.1125 52.7701 62.4522ZM58.9704 95.0032C59.4013 94.5521 59.9374 93.9263 60.8703 93.4904C62.0239 92.9531 63.2966 92.4122 64.1119 91.3752C64.309 91.1183 64.7215 90.8749 65.0501 90.8242C66.4777 90.557 67.357 89.6615 68.319 88.7877C69.0645 88.1146 69.945 87.571 70.7541 86.9514C71.339 86.51 71.916 86.0462 72.4796 85.587C74.2125 84.1572 75.2131 82.2633 76.7129 80.7253C78.2683 79.1303 78.8868 77.3937 79.3355 75.5144C79.7765 73.6127 79.3628 71.9813 78.0503 70.6231C77.3226 69.868 76.5143 69.1408 75.6065 68.5612C74.1938 67.6529 72.7216 66.7903 71.1729 66.0549C69.6282 65.3306 67.9801 64.7428 66.3225 64.1709C65.4157 63.8553 64.4172 63.7098 63.4609 63.512C62.6835 63.3529 61.8908 63.2369 60.9674 63.0907C59.3639 64.6771 57.683 66.1268 56.3065 67.7606C53.4656 71.1215 51.4143 74.8511 49.0529 78.4237C48.3837 79.448 47.6491 80.4571 47.0626 81.5031C45.8307 83.7287 45.2644 86.0513 44.9867 88.4251C44.7281 90.7672 45.5791 92.6625 47.2386 94.2406C48.0663 95.024 49.042 95.7562 50.4494 95.7351C51.8395 95.7074 53.2349 95.5647 54.6381 95.4443C56.0105 95.3221 57.3846 95.1615 58.9704 95.0032ZM122.04 35.8038C122.221 36.4584 122.858 37.0814 123.446 36.9536C123.936 36.8471 124.471 36.5235 124.818 36.1771C125.718 35.2994 126.534 34.3504 127.374 33.4304C127.681 33.0979 128.005 32.772 128.242 32.4132C128.783 31.5842 128.462 30.7009 127.454 30.5713C126.306 30.4274 125.108 30.4012 123.92 30.4471C123.253 30.4765 122.721 30.8992 122.455 31.5201C121.858 32.9722 121.792 34.3918 122.04 35.8038Z" stroke="#E9DBA9" stroke-width="0.317259" mask="url(#path-1-inside-1_387_2807)"/>
<path d="M118.834 6.47086C119.379 6.30739 119.813 6.16989 120.241 6.0595C123.92 5.1648 127.537 4.09024 131.091 2.74788C131.702 2.51156 132.349 2.33802 132.994 2.20286C133.921 2.00844 134.833 1.81867 135.623 1.23085C135.838 1.0685 136.116 0.959673 136.389 0.877938C137.616 0.466147 138.844 -0.335959 140.157 0.153748C141.786 0.773339 143.269 1.49368 143.979 3.11072C145.022 5.51847 145.712 8.03585 146.291 10.5792C146.605 11.9679 146.88 13.3706 147.181 14.7639C147.518 16.3464 147.408 17.9447 146.743 19.5464C146.673 19.7344 146.345 19.9611 146.131 19.9971C145.914 20.0219 145.546 19.8722 145.492 19.7148C144.887 17.923 144.212 16.1432 143.786 14.3022C143.233 11.9639 142.494 9.74025 141.02 7.78357C140.359 6.91724 139.698 6.13891 138.193 6.57159C137.442 6.79355 137.044 5.94934 136.144 6.26081C134.271 6.89574 132.321 7.30591 130.453 7.95208C127.956 8.82798 125.547 9.9128 122.911 10.3841C120.617 10.7999 119.842 10.4762 119.311 8.63396C119.103 7.98863 118.998 7.29486 118.834 6.47086Z" stroke="#E9DBA9" stroke-width="0.317259" mask="url(#path-1-inside-1_387_2807)"/>
</svg>
