<svg width="88" height="89" viewBox="0 0 88 89" fill="none" xmlns="http://www.w3.org/2000/svg">
<path d="M39.2687 81.8148C38.8702 81.7381 38.7142 81.2038 38.8757 80.8381C39.0372 80.4724 39.4033 80.2315 39.7485 80.0279C48.0813 74.9138 56.6621 70.2139 65.4518 65.9455C67.2474 65.0649 69.2964 63.8997 69.5562 61.9106C68.1358 62.5603 66.4394 62.5837 64.994 61.9776C64.2245 61.6531 63.334 62.0411 62.5873 62.4264C59.4048 64.0541 56.2559 65.7792 53.1615 67.5643C48.6865 70.1639 44.2996 72.9211 40.1544 76.025C39.5678 76.466 38.9712 76.916 38.3229 77.2487C38.5317 76.8948 38.3021 76.2995 38.0341 75.9035C37.9623 75.8042 37.8815 75.695 37.7577 75.6794C37.4529 75.6455 37.4578 76.1342 37.5976 76.4092C37.7547 76.7232 37.9209 77.0473 38.0679 77.3704C37.7156 77.5258 37.3651 77.643 36.9892 77.6919C37.0828 76.164 36.3639 74.6065 35.1354 73.6756C34.812 74.0239 34.155 73.9444 33.9261 73.5311C34.3948 73.5441 34.8644 73.5381 35.3331 73.5511L33.8788 71.9485C35.3477 72.6611 36.5302 73.9441 37.1264 75.467C36.8612 73.4429 35.6693 71.5657 33.9515 70.458C34.0412 70.7783 34.1401 71.1087 34.2298 71.4291C33.8958 71.4034 33.5337 71.3668 33.3055 71.1355C33.0874 70.8951 33.1407 70.3901 33.4684 70.3484C33.3139 70.1782 33.0582 70.1179 32.8352 70.1742C31.6814 68.4999 30.5175 66.8347 29.3727 65.1705C28.0644 63.3259 26.7651 61.4913 25.4567 59.6468C22.6429 55.68 19.8299 51.694 17.4113 47.4781C20.7048 49.8591 24.0073 52.2501 27.3008 54.6311C28.6702 55.6167 30.0678 56.6132 31.6726 57.0929C33.2874 57.5636 35.1905 57.4256 36.4422 56.3081C38.3844 54.5822 38.0175 51.4997 37.4908 48.9459C37.0165 46.6915 36.5522 44.428 36.078 42.1735C35.954 41.5738 35.7936 40.9339 35.3226 40.576C34.9887 38.9796 34.6456 37.3732 34.3116 35.7768C33.794 35.589 33.3759 35.1282 33.2391 34.5949C33.8059 34.7563 34.3818 34.9278 34.9385 35.0983C33.9494 34.1695 33.4432 32.7659 33.6241 31.4147C33.3199 31.5628 32.9459 31.5734 32.6366 31.434C33.1573 31.3634 33.2118 30.6381 33.1323 30.1075C32.7871 27.9551 32.452 25.7936 32.1069 23.6412C32.0337 23.178 31.9241 22.6747 31.554 22.4078C31.5144 21.2566 31.4939 20.1063 31.4633 18.9652C35.2379 27.1924 40.0514 34.9334 45.7621 41.9517C46.62 43.0179 47.5352 44.0868 48.7375 44.7674C49.9307 45.438 51.4921 45.6283 52.6669 44.9093C53.3381 44.5012 53.8112 43.8344 54.1423 43.1321C54.8904 41.5401 54.9454 39.6273 54.2874 37.9961C54.6505 38.0137 54.9477 38.4015 54.8636 38.7518C56.2961 36.283 54.0392 33.071 54.8905 30.3442C55.4011 28.712 55.515 26.9649 55.1948 25.283C56.1086 24.4173 56.3542 22.9159 55.7466 21.8235C56.3936 21.1268 56.7196 20.137 56.6124 19.1932C56.5103 19.3224 56.3528 19.4105 56.2045 19.3076C55.8899 19.0817 55.9715 18.5876 56.0947 18.2201C56.3331 17.4558 56.5806 16.7016 56.809 15.9464C57.4148 19.4331 58.0205 22.9198 58.6936 26.4001C60.408 35.2365 62.5866 43.9805 65.4171 52.5165C66.1862 54.8139 66.9935 57.1131 68.2033 59.2115C68.9899 60.5615 69.9149 61.8225 70.9892 62.9662C71.456 58.3055 70.1781 53.6754 68.9328 49.1618C67.2942 43.2884 65.6556 37.415 64.0169 31.5416C63.3816 29.2507 62.7281 26.9397 61.6831 24.8014C61.4305 26.0534 61.8048 27.4123 62.6591 28.3538C62.1991 28.753 61.602 28.0346 61.4098 27.4603C60.6589 25.1829 59.8989 22.8955 59.158 20.6091C59.8874 19.3993 59.2831 17.8473 58.6557 16.572C58.377 16.003 58.0891 15.4241 57.8204 14.846C57.6654 14.2926 56.8165 14.2229 56.3856 14.6139C55.9547 15.0049 55.8384 15.6218 55.7531 16.1923C55.2763 19.2915 54.7904 22.3807 54.3036 25.4889C53.5362 30.4225 52.768 35.3752 51.3 40.1408C50.8761 39.9958 50.589 39.5989 50.3401 39.2038C45.0001 31.0638 39.6602 22.9238 34.3202 14.7838C33.7588 13.9234 32.5658 13.8371 31.5502 13.8455C30.7648 13.8459 29.9604 13.8453 29.165 13.8548C29.4099 17.6688 30.2219 21.4432 31.5701 25.0232C31.335 26.1132 31.5194 27.2427 31.6955 28.343C32.8546 35.8022 33.4157 43.3475 33.3724 50.9114C33.3677 51.7923 33.3302 52.7578 32.7425 53.419C27.926 50.6484 23.1096 47.8778 18.2931 45.1072C19.1067 45.9031 19.9394 46.7 20.763 47.4868C19.4264 47.2019 18.2801 46.1601 17.8748 44.8476C17.7678 44.4881 17.301 44.4368 16.9279 44.4284C15.7394 44.4476 14.5508 44.4668 13.3622 44.486C21.764 56.2217 29.6385 68.3629 36.9419 80.8213C37.198 81.2647 37.4723 81.7281 37.9097 81.9886C38.3472 82.2492 38.9988 82.2424 39.2969 81.8258L39.2687 81.8148ZM69.6721 55.2121C69.9012 55.4243 70.0409 55.9003 69.7395 55.9911C69.4874 56.0555 69.3212 55.7314 69.2669 55.4702C69.2117 55.2281 69.1655 54.996 69.1103 54.7539L69.2277 54.7022C69.0385 54.6547 69.2091 54.299 69.3664 54.412C69.1632 54.6512 69.434 54.9899 69.6721 55.2121ZM60.82 29.9315L60.8218 29.8932C60.6326 29.8458 60.8032 29.4901 60.9514 29.593C60.8647 29.7995 60.8535 30.0289 60.9197 30.2427C60.7794 30.3701 60.6442 29.9996 60.83 29.9224L60.82 29.9315ZM65.6302 39.7027L65.4717 39.81C65.5955 39.8256 65.5771 40.0067 65.4869 40.0885C65.4568 40.1158 65.3986 40.1321 65.3522 40.1011C65.3081 39.6297 65.2541 39.1674 65.21 38.696C65.347 39.0283 65.4831 39.3796 65.6202 39.7118L65.6302 39.7027ZM64.4178 35.8899C64.4829 36.324 64.5488 36.739 64.6138 37.1732C64.0289 36.9917 63.5973 36.4153 63.5698 35.8011C63.5423 35.1868 63.5248 34.5634 63.4973 33.9491C64.2032 34.2035 64.3013 35.1373 64.4178 35.8899ZM63.4446 33.0655L63.4318 33.1319C63.0552 32.9988 62.8883 32.4927 63.0962 32.158C63.3026 32.2446 63.5182 32.3412 63.6245 32.5187C63.7399 32.7062 63.6676 33.0092 63.4455 33.0464L63.4446 33.0655ZM62.5976 29.6151C62.5976 29.6151 62.5475 29.6605 62.4993 29.6678C62.1497 29.7658 61.9812 29.0969 62.3199 29.027C62.6212 28.9362 62.7881 29.4423 62.5876 29.6242L62.5976 29.6151ZM58.0305 17.4133C58.0305 17.4133 57.9904 17.4497 57.9803 17.4588C57.8 17.6224 57.3844 17.3055 57.5767 17.0945L57.9869 17.325L58.0505 17.3951L58.0305 17.4133ZM54.1742 35.2132C54.1844 35.003 54.4321 34.833 54.6295 34.9096C54.6183 35.1389 54.6081 35.3491 54.5969 35.5784C54.3839 35.6256 54.1539 35.4325 54.1641 35.2223L54.1742 35.2132ZM52.6149 39.4956C52.6223 39.3427 52.6298 39.1898 52.6373 39.037C52.912 39.0981 53.1192 39.3667 53.1061 39.6343C53.0987 39.7871 53.0248 39.9272 52.9046 40.0363C52.8144 40.1182 52.6969 40.17 52.5713 40.1926C52.5825 39.9633 52.5937 39.734 52.6049 39.5047L52.6149 39.4956ZM48.4687 40.2627L48.3387 40.1798C48.1068 40.0249 47.956 39.7782 47.8926 39.507C48.2676 39.4772 48.6011 39.9051 48.4687 40.2627ZM50.2394 40.4823C50.4702 40.8573 50.5142 41.3288 50.6957 41.7302C50.214 41.1994 49.6521 40.7412 49.0583 40.3486C48.9947 40.2785 49.0485 40.1566 49.1278 40.103C49.4857 39.8329 50.0087 40.1072 50.2394 40.4823ZM47.7588 37.9299C47.5386 37.9288 47.3193 37.9086 47.0991 37.9075L47.1531 36.7992L47.1731 36.781C47.6371 36.8896 47.9341 37.4786 47.7579 37.9489L47.7588 37.9299ZM46.0205 34.8865C45.9047 35.1012 45.7469 35.3905 45.9005 35.5798C46.1661 35.631 46.47 35.684 46.6308 35.9216C46.738 36.08 46.6968 36.3366 46.5665 36.4548C46.5164 36.5003 46.4381 36.5348 46.3626 36.512C46.2771 36.4983 46.2125 36.4473 46.148 36.3963C45.8252 36.1413 45.5143 35.8389 45.3801 35.4494C45.2458 35.0598 45.3274 34.5657 45.6644 34.333C45.7245 34.2784 45.8119 34.2539 45.8783 34.2667C46.1258 34.2978 46.1172 34.6709 46.0104 34.8956L46.0205 34.8865ZM33.5992 15.8216C33.8551 15.6807 34.1469 15.9821 34.2284 16.2734C34.31 16.5647 34.3224 16.9004 34.5724 17.0753C35.2953 17.57 36.08 18.1729 36.1628 19.0293C35.5004 18.8632 34.9686 18.3778 34.465 17.9034C34.0159 17.489 33.5768 17.0656 33.1187 16.6412C33.296 16.7359 33.5281 16.6897 33.6684 16.5624C33.6985 16.5351 33.7285 16.5078 33.7495 16.4705C33.8744 16.2659 33.8029 15.9655 33.6083 15.8316L33.5992 15.8216ZM32.5132 15.3094L32.5533 15.2731C32.7761 15.4179 32.9369 15.6555 32.9812 15.9258C32.7008 15.9793 32.365 15.9918 32.1841 15.7724C32.0033 15.553 32.3023 15.1173 32.5132 15.3094ZM37.7002 22.6567C37.3579 22.0177 37.0155 21.3786 36.6822 20.7496C36.4979 20.4055 36.3054 20.0322 36.3441 19.6318C36.5578 19.7667 36.6913 19.9742 36.8249 20.1818L38.3919 22.6135C38.4455 22.6927 38.4982 22.791 38.4935 22.8866C38.4908 22.9439 38.4597 22.9903 38.4197 23.0267C38.3295 23.1085 38.1656 23.1293 38.0629 23.0765C37.8946 22.9917 37.7974 22.8242 37.7093 22.6667L37.7002 22.6567ZM36.4786 22.1763C36.5779 22.1045 36.7515 22.2757 36.6604 22.3766C36.5602 22.4676 36.3875 22.2773 36.4786 22.1763ZM38.8863 24.0644C38.8618 23.977 38.8373 23.8896 38.8702 23.805C38.9806 23.5039 39.4262 23.7936 39.5751 24.0785C40.1272 25.1299 40.6766 26.2387 40.657 27.4253C39.8527 26.4384 39.248 25.2886 38.8762 24.0735L38.8863 24.0644ZM41.6759 29.3134C41.5887 29.1368 41.5016 28.9602 41.53 28.77C41.5584 28.5799 41.7397 28.3971 41.919 28.4536C42.0527 29.2454 42.6708 29.9265 43.4459 30.1363C43.4357 30.3465 43.4345 30.5668 43.4243 30.777C43.0712 30.7503 42.7181 30.7237 42.365 30.6971C42.129 30.2355 41.912 29.7749 41.6759 29.3134ZM44.085 32.3508C44.2418 32.0807 44.8058 32.2994 44.6308 32.5496L44.6762 32.5996C44.5837 33.1219 45.5588 33.5521 45.1871 33.9077C44.9566 34.1168 44.6166 33.8227 44.4576 33.5468C44.3959 33.4385 44.3341 33.3302 44.2532 33.2209C44.0843 32.9542 43.919 32.611 44.085 32.3508ZM30.3622 18.9599C30.2578 18.7441 30.3463 18.4994 30.4239 18.2828C30.7206 18.2876 30.9304 18.7 30.7553 18.9501L30.9073 18.9766C30.9073 18.9766 30.8844 19.0521 30.8544 19.0794C30.7341 19.1885 30.4685 19.1374 30.3713 18.9699L30.3622 18.9599ZM35.0843 41.3402C35.1845 41.2493 35.3572 41.4396 35.266 41.5405C35.1658 41.6315 34.9931 41.4411 35.0843 41.3402ZM34.2996 43.0933C34.3905 43.1934 34.2001 43.3662 34.0992 43.2751C34.0083 43.175 34.1987 43.0022 34.2996 43.0933ZM35.2633 45.5246C34.9708 45.0411 35.0708 44.366 35.4362 43.9431C35.876 44.5485 36.0671 45.3431 35.9734 46.0856C35.6804 46.0044 35.4222 45.8004 35.2724 45.5346L35.2633 45.5246ZM36.4188 48.9324L36.6027 48.8934C36.9571 49.284 37.052 49.892 36.8276 50.3696C36.3419 50.1163 36.2216 49.4401 36.4288 48.9233L36.4188 48.9324ZM36.6421 51.0311C36.7423 50.9401 36.915 51.1304 36.8238 51.2314C36.7236 51.3223 36.5509 51.132 36.6421 51.0311ZM31.3507 53.6774C31.5919 53.6412 31.8282 53.9016 31.7688 54.1382C31.5276 54.1744 31.2822 53.904 31.3507 53.6774ZM29.59 52.6634C29.7492 52.7381 29.9084 52.8129 30.0675 52.8876L30.0356 52.9531C30.2775 53.0988 30.4465 53.3656 30.4707 53.6541C30.0268 53.5273 29.6632 53.1266 29.5809 52.6534L29.59 52.6634ZM21.3512 47.994C21.2941 47.7902 21.5073 47.5419 21.6938 47.6467C23.117 48.5103 24.5002 49.4103 25.8924 50.3204C26.9227 50.9927 27.9622 51.6749 28.9925 52.3472C28.3497 52.5652 27.6904 52.1407 27.1348 51.7499C25.4226 50.5275 23.6384 49.407 21.7912 48.3984C21.6048 48.2936 21.4093 48.1788 21.3522 47.9749L21.3512 47.994Z" fill="#FCAF00"/>
<path d="M30.8646 65.606C30.8646 65.606 30.8045 65.6605 30.8017 65.7179C30.777 65.8316 30.8387 65.9399 30.8914 66.0382C31.4591 66.9659 32.096 67.8491 32.8031 68.6686C32.564 67.6801 32.141 66.7307 31.5595 65.8886C31.3987 65.6509 31.0158 65.4505 30.8555 65.596L30.8646 65.606Z" fill="#FCAF00"/>
</svg>
